<svg xmlns="http://www.w3.org/2000/svg" width="73.5" height="67.19" viewBox="347.481 156.693 73.5 67.19"><g data-name="Groupe 333"><g data-name="Groupe 332"><path d="M384.23 203.909c-2.055 0-3.777 1.722-3.777 3.777s1.722 3.777 3.777 3.777c1.98 0 3.778-1.722 3.687-3.687a3.688 3.688 0 0 0-3.687-3.867Z" fill="#fff" fill-rule="evenodd" data-name="Tracé 4209"/><path d="M419.193 217.295c2.372-4.094 2.387-8.975.03-13.054l-23.66-40.976c-2.343-4.125-6.573-6.572-11.318-6.572-4.744 0-8.974 2.462-11.316 6.557l-23.691 41.021c-2.358 4.125-2.342 9.035.045 13.13 2.357 4.05 6.572 6.482 11.286 6.482h47.262c4.729 0 8.974-2.463 11.362-6.588Zm-5.137-2.961c-1.315 2.266-3.642 3.61-6.24 3.61h-47.262c-2.568 0-4.88-1.314-6.164-3.535-1.3-2.25-1.315-4.94-.015-7.207l23.69-41.006c1.285-2.251 3.582-3.58 6.18-3.58 2.584 0 4.896 1.344 6.18 3.595l23.676 41.006c1.27 2.206 1.254 4.866-.045 7.117Z" fill="#fff" fill-rule="evenodd" data-name="Tracé 4210"/><path d="M383.293 177.392c-1.798.514-2.916 2.146-2.916 4.125.091 1.193.167 2.402.257 3.596.257 4.548.514 9.005.77 13.553.091 1.54 1.285 2.659 2.826 2.659 1.541 0 2.75-1.194 2.826-2.75 0-.937 0-1.798.09-2.75.166-2.916.348-5.832.514-8.748.09-1.889.257-3.777.348-5.666 0-.68-.091-1.284-.348-1.889-.77-1.692-2.569-2.553-4.367-2.13Z" fill="#fff" fill-rule="evenodd" data-name="Tracé 4211"/></g></g></svg>