<svg xmlns="http://www.w3.org/2000/svg" width="98.203" height="97.576" viewBox="580.727 391.036 98.203 97.576"><g data-name="Groupe 308"><g data-name="Groupe 281"><g data-name="Groupe 277"><path d="M676.166 458.768a8.663 8.663 0 0 0-10.057-4.113l-24.688 7.254c-.752-4.14-3.736-7.545-7.893-8.795l-16.102-4.842a1.575 1.575 0 0 0-.967.017l-14.988 5.09v-3.587c0-.877-.71-1.588-1.588-1.588h-16.279c-.877 0-1.587.711-1.587 1.588v30.786c0 .877.71 1.587 1.587 1.587h16.28c.877 0 1.587-.71 1.587-1.587v-2.405c7.68 2.449 32 8.798 33.15 9.098.348.091.718.06 1.047-.086l12.196-5.431a1.586 1.586 0 0 0 .803-2.096 1.587 1.587 0 0 0-2.096-.805l-11.688 5.205c-8.516-2.225-28.723-7.594-33.412-9.222v-18.104l15.528-5.273 15.615 4.696c3.288.988 5.53 3.857 5.77 7.235-1.246 1.186-5.462 4.394-13.429 2.816a1.583 1.583 0 0 0-1.865 1.248 1.586 1.586 0 0 0 1.248 1.867c1.73.343 3.321.49 4.772.49 6.87 0 10.648-3.27 11.777-4.435l26.116-7.674a5.507 5.507 0 0 1 6.39 2.612 5.476 5.476 0 0 1 .416 4.441 5.47 5.47 0 0 1-2.997 3.303l-18.686 8.322a1.588 1.588 0 0 0 1.293 2.9l18.686-8.321a8.726 8.726 0 0 0 4.717-5.2 8.726 8.726 0 0 0-.656-6.991Zm-77.87 20.222h-13.104v-27.61h13.103v27.61Z" fill="#fff" fill-rule="evenodd" data-name="Tracé 4179"/><g data-name="Groupe 276" transform="translate(582.017 448.204)" clip-path="url(&quot;#a&quot;)"><g data-name="Groupe 184"><path d="M3.175 3.175h.306v27.611h-.306V3.176z" fill="#fff" fill-rule="evenodd" data-name="Rectangle 293"/></g><g data-name="Groupe 185"><path d="M3.48 3.175h1.167v27.611H3.481V3.176z" fill="#fff" fill-rule="evenodd" data-name="Rectangle 294"/></g><g data-name="Groupe 186"><path d="M4.647 3.175h1.167v27.611H4.647V3.176z" fill="#fff" fill-rule="evenodd" data-name="Rectangle 295"/></g><g data-name="Groupe 187"><path d="M5.814 3.175H6.98v27.611H5.814V3.176z" fill="#fff" fill-rule="evenodd" data-name="Rectangle 296"/></g><g data-name="Groupe 188"><path d="M6.98 3.175h1.167v27.611H6.98V3.176z" fill="#fff" fill-rule="evenodd" data-name="Rectangle 297"/></g><g data-name="Groupe 189"><path d="M8.147 3.175h1.166v27.611H8.147V3.176z" fill="#fff" fill-rule="evenodd" data-name="Rectangle 298"/></g><g data-name="Groupe 190"><path d="M9.313 3.175h1.167v27.611H9.313V3.176z" fill="#fff" fill-rule="evenodd" data-name="Rectangle 299"/></g><g data-name="Groupe 191"><path d="M10.48 3.175h1.166v27.611H10.48V3.176z" fill="#fff" fill-rule="evenodd" data-name="Rectangle 300"/></g><g data-name="Groupe 192"><path d="M11.646 3.175h1.167v27.611h-1.167V3.176z" fill="#fff" fill-rule="evenodd" data-name="Rectangle 301"/></g><g data-name="Groupe 193"><path d="M12.813 3.175h1.166v27.611h-1.166V3.176z" fill="#fff" fill-rule="evenodd" data-name="Rectangle 302"/></g><g data-name="Groupe 194"><path d="M13.98 3.175h1.166v27.611h-1.167V3.176z" fill="#fff" fill-rule="evenodd" data-name="Rectangle 303"/></g><g data-name="Groupe 195"><path d="M15.146 3.175h1.132v27.611h-1.132V3.176z" fill="#fff" fill-rule="evenodd" data-name="Rectangle 304"/></g><g data-name="Groupe 196"><path d="M0-.028h1.148v39.186H0V-.028z" fill="#fff" fill-rule="evenodd" data-name="Rectangle 305"/></g><g data-name="Groupe 197"><path d="M1.148-.028h1.166v39.186H1.148V-.028z" fill="#fff" fill-rule="evenodd" data-name="Rectangle 306"/></g><g data-name="Groupe 198"><path d="M2.314-.028h1.167v39.186H2.314V-.028z" fill="#fff" fill-rule="evenodd" data-name="Rectangle 307"/></g><g data-name="Groupe 199"><path d="M3.48-.028h1.167v39.186H3.481V-.028z" fill="#fff" fill-rule="evenodd" data-name="Rectangle 308"/></g><g data-name="Groupe 200"><path d="M4.647-.028h1.167v39.186H4.647V-.028z" fill="#fff" fill-rule="evenodd" data-name="Rectangle 309"/></g><g data-name="Groupe 201"><path d="M5.814-.028H6.98v39.186H5.814V-.028z" fill="#fff" fill-rule="evenodd" data-name="Rectangle 310"/></g><g data-name="Groupe 202"><path d="M6.98-.028h1.167v39.186H6.98V-.028z" fill="#fff" fill-rule="evenodd" data-name="Rectangle 311"/></g><g data-name="Groupe 203"><path d="M8.147-.028h1.166v39.186H8.147V-.028z" fill="#fff" fill-rule="evenodd" data-name="Rectangle 312"/></g><g data-name="Groupe 204"><path d="M9.313-.028h1.167v39.186H9.313V-.028z" fill="#fff" fill-rule="evenodd" data-name="Rectangle 313"/></g><g data-name="Groupe 205"><path d="M10.48-.028h1.166v39.186H10.48V-.028z" fill="#fff" fill-rule="evenodd" data-name="Rectangle 314"/></g><g data-name="Groupe 206"><path d="M11.646-.028h1.167v39.186h-1.167V-.028z" fill="#fff" fill-rule="evenodd" data-name="Rectangle 315"/></g><g data-name="Groupe 207"><path d="M12.813-.028h1.166v39.186h-1.166V-.028z" fill="#fff" fill-rule="evenodd" data-name="Rectangle 316"/></g><g data-name="Groupe 208"><path d="M13.98-.028h1.166v39.186h-1.167V-.028z" fill="#fff" fill-rule="evenodd" data-name="Rectangle 317"/></g><g data-name="Groupe 209"><path d="M15.146-.028h1.166v39.186h-1.166V-.028z" fill="#fff" fill-rule="evenodd" data-name="Rectangle 318"/></g><g data-name="Groupe 210"><path d="M16.312-.028h1.167v39.186h-1.167V-.028z" fill="#fff" fill-rule="evenodd" data-name="Rectangle 319"/></g><g data-name="Groupe 211"><path d="M17.479-.028h1.167v39.186h-1.167V-.028z" fill="#fff" fill-rule="evenodd" data-name="Rectangle 320"/></g><g data-name="Groupe 212"><path d="M18.646-.028h1.166v39.186h-1.166V-.028z" fill="#fff" fill-rule="evenodd" data-name="Rectangle 321"/></g><g data-name="Groupe 213"><path d="M19.812-.028h1.167v39.186h-1.167V-.028z" fill="#fff" fill-rule="evenodd" data-name="Rectangle 322"/></g><g data-name="Groupe 214"><path d="M20.979-.028h1.166v39.186H20.98V-.028z" fill="#fff" fill-rule="evenodd" data-name="Rectangle 323"/></g><g data-name="Groupe 215"><path d="M22.145-.028h1.167v39.186h-1.167V-.028z" fill="#fff" fill-rule="evenodd" data-name="Rectangle 324"/></g><g data-name="Groupe 216"><path d="M23.312-.028h1.166v39.186h-1.166V-.028z" fill="#fff" fill-rule="evenodd" data-name="Rectangle 325"/></g><g data-name="Groupe 217"><path d="M24.478-.028h1.167v39.186h-1.167V-.028z" fill="#fff" fill-rule="evenodd" data-name="Rectangle 326"/></g><g data-name="Groupe 218"><path d="M25.645-.028h1.166v39.186h-1.166V-.028z" fill="#fff" fill-rule="evenodd" data-name="Rectangle 327"/></g><g data-name="Groupe 219"><path d="M26.811-.028h1.167v39.186H26.81V-.028z" fill="#fff" fill-rule="evenodd" data-name="Rectangle 328"/></g><g data-name="Groupe 220"><path d="M27.978-.028h1.166v39.186h-1.166V-.028z" fill="#fff" fill-rule="evenodd" data-name="Rectangle 329"/></g><g data-name="Groupe 221"><path d="M29.144-.028h1.167v39.186h-1.167V-.028z" fill="#fff" fill-rule="evenodd" data-name="Rectangle 330"/></g><g data-name="Groupe 222"><path d="M30.31-.028h1.167v39.186h-1.166V-.028z" fill="#fff" fill-rule="evenodd" data-name="Rectangle 331"/></g><g data-name="Groupe 223"><path d="M31.477-.028h1.167v39.186h-1.167V-.028z" fill="#fff" fill-rule="evenodd" data-name="Rectangle 332"/></g><g data-name="Groupe 224"><path d="M32.644-.028h1.166v39.186h-1.166V-.028z" fill="#fff" fill-rule="evenodd" data-name="Rectangle 333"/></g><g data-name="Groupe 225"><path d="M33.81-.028h1.167v39.186H33.81V-.028z" fill="#fff" fill-rule="evenodd" data-name="Rectangle 334"/></g><g data-name="Groupe 226"><path d="M34.977-.028h1.166v39.186h-1.166V-.028z" fill="#fff" fill-rule="evenodd" data-name="Rectangle 335"/></g><g data-name="Groupe 227"><path d="M36.143-.028h1.167v39.186h-1.167V-.028z" fill="#fff" fill-rule="evenodd" data-name="Rectangle 336"/></g><g data-name="Groupe 228"><path d="M37.31-.028h1.166v39.186H37.31V-.028z" fill="#fff" fill-rule="evenodd" data-name="Rectangle 337"/></g><g data-name="Groupe 229"><path d="M38.476-.028h1.167v39.186h-1.167V-.028z" fill="#fff" fill-rule="evenodd" data-name="Rectangle 338"/></g><g data-name="Groupe 230"><path d="M39.643-.028h1.166v39.186h-1.166V-.028z" fill="#fff" fill-rule="evenodd" data-name="Rectangle 339"/></g><g data-name="Groupe 231"><path d="M40.81-.028h1.166v39.186h-1.167V-.028z" fill="#fff" fill-rule="evenodd" data-name="Rectangle 340"/></g><g data-name="Groupe 232"><path d="M41.976-.028h1.166v39.186h-1.166V-.028z" fill="#fff" fill-rule="evenodd" data-name="Rectangle 341"/></g><g data-name="Groupe 233"><path d="M43.142-.028h1.167v39.186h-1.167V-.028z" fill="#fff" fill-rule="evenodd" data-name="Rectangle 342"/></g><g data-name="Groupe 234"><path d="M44.309-.028h1.166v39.186H44.31V-.028z" fill="#fff" fill-rule="evenodd" data-name="Rectangle 343"/></g><g data-name="Groupe 235"><path d="M45.475-.028h1.167v39.186h-1.167V-.028z" fill="#fff" fill-rule="evenodd" data-name="Rectangle 344"/></g><g data-name="Groupe 236"><path d="M46.642-.028h1.167v39.186h-1.167V-.028z" fill="#fff" fill-rule="evenodd" data-name="Rectangle 345"/></g><g data-name="Groupe 237"><path d="M47.809-.028h1.166v39.186h-1.166V-.028z" fill="#fff" fill-rule="evenodd" data-name="Rectangle 346"/></g><g data-name="Groupe 238"><path d="M48.975-.028h1.167v39.186h-1.167V-.028z" fill="#fff" fill-rule="evenodd" data-name="Rectangle 347"/></g><g data-name="Groupe 239"><path d="M50.142-.028h1.166v39.186h-1.166V-.028z" fill="#fff" fill-rule="evenodd" data-name="Rectangle 348"/></g><g data-name="Groupe 240"><path d="M51.308-.028h1.167v39.186h-1.167V-.028z" fill="#fff" fill-rule="evenodd" data-name="Rectangle 349"/></g><g data-name="Groupe 241"><path d="M52.475-.028h1.166v39.186h-1.166V-.028z" fill="#fff" fill-rule="evenodd" data-name="Rectangle 350"/></g><g data-name="Groupe 242"><path d="M53.641-.028h1.167v39.186H53.64V-.028z" fill="#fff" fill-rule="evenodd" data-name="Rectangle 351"/></g><g data-name="Groupe 243"><path d="M54.808-.028h1.166v39.186h-1.166V-.028z" fill="#fff" fill-rule="evenodd" data-name="Rectangle 352"/></g><g data-name="Groupe 244"><path d="M55.974-.028h1.167v39.186h-1.167V-.028z" fill="#fff" fill-rule="evenodd" data-name="Rectangle 353"/></g><g data-name="Groupe 245"><path d="M57.14-.028h1.167v39.186h-1.166V-.028z" fill="#fff" fill-rule="evenodd" data-name="Rectangle 354"/></g><g data-name="Groupe 246"><path d="M58.307-.028h1.167v39.186h-1.167V-.028z" fill="#fff" fill-rule="evenodd" data-name="Rectangle 355"/></g><g data-name="Groupe 247"><path d="M59.474-.028h1.166v39.186h-1.166V-.028z" fill="#fff" fill-rule="evenodd" data-name="Rectangle 356"/></g><g data-name="Groupe 248"><path d="M60.64-.028h1.167v39.186H60.64V-.028z" fill="#fff" fill-rule="evenodd" data-name="Rectangle 357"/></g><g data-name="Groupe 249"><path d="M61.807-.028h1.166v39.186h-1.166V-.028z" fill="#fff" fill-rule="evenodd" data-name="Rectangle 358"/></g><g data-name="Groupe 250"><path d="M62.973-.028h1.167v39.186h-1.167V-.028z" fill="#fff" fill-rule="evenodd" data-name="Rectangle 359"/></g><g data-name="Groupe 251"><path d="M64.14-.028h1.166v39.186H64.14V-.028z" fill="#fff" fill-rule="evenodd" data-name="Rectangle 360"/></g><g data-name="Groupe 252"><path d="M65.306-.028h1.167v39.186h-1.167V-.028z" fill="#fff" fill-rule="evenodd" data-name="Rectangle 361"/></g><g data-name="Groupe 253"><path d="M66.473-.028h1.166v39.186h-1.166V-.028z" fill="#fff" fill-rule="evenodd" data-name="Rectangle 362"/></g><g data-name="Groupe 254"><path d="M67.64-.028h1.166v39.186h-1.167V-.028z" fill="#fff" fill-rule="evenodd" data-name="Rectangle 363"/></g><g data-name="Groupe 255"><path d="M68.806-.028h1.166v39.186h-1.166V-.028z" fill="#fff" fill-rule="evenodd" data-name="Rectangle 364"/></g><g data-name="Groupe 256"><path d="M69.972-.028h1.167v39.186h-1.167V-.028z" fill="#fff" fill-rule="evenodd" data-name="Rectangle 365"/></g><g data-name="Groupe 257"><path d="M71.139-.028h1.166v39.186H71.14V-.028z" fill="#fff" fill-rule="evenodd" data-name="Rectangle 366"/></g><g data-name="Groupe 258"><path d="M72.305-.028h1.167v39.186h-1.167V-.028z" fill="#fff" fill-rule="evenodd" data-name="Rectangle 367"/></g><g data-name="Groupe 259"><path d="M73.472-.028h1.166v39.186h-1.166V-.028z" fill="#fff" fill-rule="evenodd" data-name="Rectangle 368"/></g><g data-name="Groupe 260"><path d="M74.638-.028h1.167v39.186h-1.167V-.028z" fill="#fff" fill-rule="evenodd" data-name="Rectangle 369"/></g><g data-name="Groupe 261"><path d="M75.805-.028h1.167v39.186h-1.167V-.028z" fill="#fff" fill-rule="evenodd" data-name="Rectangle 370"/></g><g data-name="Groupe 262"><path d="M76.972-.028h1.166v39.186h-1.166V-.028z" fill="#fff" fill-rule="evenodd" data-name="Rectangle 371"/></g><g data-name="Groupe 263"><path d="M78.138-.028h1.167v39.186h-1.167V-.028z" fill="#fff" fill-rule="evenodd" data-name="Rectangle 372"/></g><g data-name="Groupe 264"><path d="M79.305-.028h1.166v39.186h-1.166V-.028z" fill="#fff" fill-rule="evenodd" data-name="Rectangle 373"/></g><g data-name="Groupe 265"><path d="M80.471-.028h1.167v39.186H80.47V-.028z" fill="#fff" fill-rule="evenodd" data-name="Rectangle 374"/></g><g data-name="Groupe 266"><path d="M81.638-.028h1.166v39.186h-1.166V-.028z" fill="#fff" fill-rule="evenodd" data-name="Rectangle 375"/></g><g data-name="Groupe 267"><path d="M82.804-.028h1.167v39.186h-1.167V-.028z" fill="#fff" fill-rule="evenodd" data-name="Rectangle 376"/></g><g data-name="Groupe 268"><path d="M83.97-.028h1.167v39.186h-1.166V-.028z" fill="#fff" fill-rule="evenodd" data-name="Rectangle 377"/></g><g data-name="Groupe 269"><path d="M85.137-.028h1.167v39.186h-1.167V-.028z" fill="#fff" fill-rule="evenodd" data-name="Rectangle 378"/></g><g data-name="Groupe 270"><path d="M86.304-.028h1.166v39.186h-1.166V-.028z" fill="#fff" fill-rule="evenodd" data-name="Rectangle 379"/></g><g data-name="Groupe 271"><path d="M87.47-.028h1.167v39.186H87.47V-.028z" fill="#fff" fill-rule="evenodd" data-name="Rectangle 380"/></g><g data-name="Groupe 272"><path d="M88.637-.028h1.166v39.186h-1.166V-.028z" fill="#fff" fill-rule="evenodd" data-name="Rectangle 381"/></g><g data-name="Groupe 273"><path d="M89.803-.028h1.167v39.186h-1.167V-.028z" fill="#fff" fill-rule="evenodd" data-name="Rectangle 382"/></g><g data-name="Groupe 274"><path d="M90.97-.028h1.166v39.186H90.97V-.028z" fill="#fff" fill-rule="evenodd" data-name="Rectangle 383"/></g><g data-name="Groupe 275"><path d="M92.136-.028h3.44v39.186h-3.44V-.028z" fill="#fff" fill-rule="evenodd" data-name="Rectangle 384"/></g></g></g><g data-name="Groupe 280"><g data-name="Groupe 279"><path d="M635.02 488.612c-.244 0-.488-.03-.725-.093-.969-.252-22.427-5.853-31.535-8.597v.656a2.88 2.88 0 0 1-2.877 2.877h-16.279a2.88 2.88 0 0 1-2.877-2.877v-30.786a2.88 2.88 0 0 1 2.877-2.878h16.279a2.88 2.88 0 0 1 2.877 2.878v1.787l13.284-4.511a2.839 2.839 0 0 1 1.755-.031l16.1 4.842c4.111 1.236 7.249 4.394 8.457 8.411l23.389-6.872c4.512-1.32 9.26.622 11.547 4.721a10.02 10.02 0 0 1 .753 8.028 10.02 10.02 0 0 1-5.415 5.97l-18.686 8.321a2.881 2.881 0 0 1-3.802-1.464 2.853 2.853 0 0 1-.057-2.193 2.86 2.86 0 0 1 1.516-1.6l18.687-8.321a4.195 4.195 0 0 0 2.298-2.533 4.2 4.2 0 0 0-.32-3.405 4.234 4.234 0 0 0-4.902-2.002l-25.797 7.58c-1.6 1.554-5.597 4.58-12.457 4.58-1.613 0-3.303-.173-5.023-.514a2.86 2.86 0 0 1-1.834-1.224 2.855 2.855 0 0 1-.428-2.16 2.856 2.856 0 0 1 1.23-1.837 2.842 2.842 0 0 1 2.16-.422c1.798.356 7.824 1.221 11.812-2.073a6.793 6.793 0 0 0-4.785-5.48l-15.22-4.577-14.262 4.843v16.25c5.615 1.796 22.853 6.394 32.012 8.79l11.275-5.021c1.46-.641 3.162.016 3.8 1.461a2.85 2.85 0 0 1 .058 2.196 2.858 2.858 0 0 1-1.515 1.6l-12.198 5.432c-.37.164-.771.248-1.173.248Zm-34.84-12.203 1.682.535c7.7 2.454 32.052 8.81 33.085 9.08.064.016.136.01.197-.017l12.196-5.432a.292.292 0 0 0 .156-.165.298.298 0 0 0-.406-.376l-12.095 5.387-.438-.115c-9.593-2.507-28.942-7.666-33.51-9.251l-.866-.301v-19.946l16.794-5.704 16.01 4.815c3.782 1.137 6.405 4.426 6.685 8.38l.043.606-.44.419c-.696.663-2.227 1.898-4.666 2.731-2.925.998-6.256 1.139-9.903.416a.282.282 0 0 0-.22.042.299.299 0 0 0-.085.416.29.29 0 0 0 .19.126c1.556.31 3.077.466 4.52.466 6.436 0 9.933-3.095 10.852-4.043l.236-.244 26.442-7.77a6.802 6.802 0 0 1 7.881 3.22 6.754 6.754 0 0 1 .513 5.478 6.746 6.746 0 0 1-3.696 4.074l-18.686 8.322a.291.291 0 0 0-.156.165.29.29 0 0 0 .005.226.298.298 0 0 0 .387.156l18.694-8.325a7.433 7.433 0 0 0 4.017-4.429 7.434 7.434 0 0 0-.559-5.955 7.386 7.386 0 0 0-8.568-3.503l-26.063 7.658-.256-1.411c-.674-3.71-3.354-6.696-6.995-7.79l-16.102-4.843a.288.288 0 0 0-.174 0l-16.7 5.672v-5.387a.298.298 0 0 0-.298-.298h-16.279a.298.298 0 0 0-.297.298v30.786c0 .164.133.297.297.297h16.279a.298.298 0 0 0 .298-.297v-4.17Zm-.595 3.871h-15.683v-30.19h15.683v30.19Zm-13.103-2.58h10.523v-25.03h-10.523v25.03Z" fill="#fff" fill-rule="evenodd" data-name="Tracé 4181"/><g data-name="Groupe 278" transform="translate(580.727 446.913)" clip-path="url(&quot;#b&quot;)"><path d="M5.755 5.757h.516v25.03h-.516V5.757z" fill="#fff" fill-rule="evenodd" data-name="Rectangle 385"/><path d="M6.271 5.757h1.254v25.03H6.271V5.757z" fill="#fff" fill-rule="evenodd" data-name="Rectangle 386"/><path d="M7.525 5.757H8.78v25.03H7.525V5.757z" fill="#fff" fill-rule="evenodd" data-name="Rectangle 387"/><path d="M8.78 5.757h1.254v25.03H8.779V5.757z" fill="#fff" fill-rule="evenodd" data-name="Rectangle 388"/><path d="M10.034 5.757h1.254v25.03h-1.254V5.757z" fill="#fff" fill-rule="evenodd" data-name="Rectangle 389"/><path d="M11.288 5.757h1.254v25.03h-1.254V5.757z" fill="#fff" fill-rule="evenodd" data-name="Rectangle 390"/><path d="M12.542 5.757h1.254v25.03h-1.254V5.757z" fill="#fff" fill-rule="evenodd" data-name="Rectangle 391"/><path d="M13.796 5.757h1.254v25.03h-1.254V5.757z" fill="#fff" fill-rule="evenodd" data-name="Rectangle 392"/><path d="M15.05 5.757h1.228v25.03H15.05V5.757z" fill="#fff" fill-rule="evenodd" data-name="Rectangle 393"/><path d="M3.175 3.177h.588v30.19h-.588V3.177z" fill="#fff" fill-rule="evenodd" data-name="Rectangle 394"/><path d="M3.763 3.177h1.254v30.19H3.763V3.177z" fill="#fff" fill-rule="evenodd" data-name="Rectangle 395"/><path d="M5.017 3.177H6.27v30.19H5.017V3.177z" fill="#fff" fill-rule="evenodd" data-name="Rectangle 396"/><path d="M6.271 3.177h1.254v30.19H6.271V3.177z" fill="#fff" fill-rule="evenodd" data-name="Rectangle 397"/><path d="M7.525 3.177H8.78v30.19H7.525V3.177z" fill="#fff" fill-rule="evenodd" data-name="Rectangle 398"/><path d="M8.78 3.177h1.254v30.19H8.779V3.177z" fill="#fff" fill-rule="evenodd" data-name="Rectangle 399"/><path d="M10.034 3.177h1.254v30.19h-1.254V3.177z" fill="#fff" fill-rule="evenodd" data-name="Rectangle 400"/><path d="M11.288 3.177h1.254v30.19h-1.254V3.177z" fill="#fff" fill-rule="evenodd" data-name="Rectangle 401"/><path d="M12.542 3.177h1.254v30.19h-1.254V3.177z" fill="#fff" fill-rule="evenodd" data-name="Rectangle 402"/><path d="M13.796 3.177h1.254v30.19h-1.254V3.177z" fill="#fff" fill-rule="evenodd" data-name="Rectangle 403"/><path d="M15.05 3.177h1.255v30.19H15.05V3.177z" fill="#fff" fill-rule="evenodd" data-name="Rectangle 404"/><path d="M16.305 3.177h1.254v30.19h-1.254V3.177z" fill="#fff" fill-rule="evenodd" data-name="Rectangle 405"/><path d="M17.559 3.177h1.254v30.19H17.56V3.177z" fill="#fff" fill-rule="evenodd" data-name="Rectangle 406"/><path d="M18.813 3.177h.045v30.19h-.045V3.177z" fill="#fff" fill-rule="evenodd" data-name="Rectangle 407"/><path d="M2.58 2.576h1.183v36.55H2.58V2.577z" fill="#fff" fill-rule="evenodd" data-name="Rectangle 408"/><path d="M3.763 2.576h1.254v36.55H3.763V2.577z" fill="#fff" fill-rule="evenodd" data-name="Rectangle 409"/><path d="M5.017 2.576H6.27v36.55H5.017V2.577z" fill="#fff" fill-rule="evenodd" data-name="Rectangle 410"/><path d="M6.271 2.576h1.254v36.55H6.271V2.577z" fill="#fff" fill-rule="evenodd" data-name="Rectangle 411"/><path d="M7.525 2.576H8.78v36.55H7.525V2.577z" fill="#fff" fill-rule="evenodd" data-name="Rectangle 412"/><path d="M8.78 2.576h1.254v36.55H8.779V2.577z" fill="#fff" fill-rule="evenodd" data-name="Rectangle 413"/><path d="M10.034 2.576h1.254v36.55h-1.254V2.577z" fill="#fff" fill-rule="evenodd" data-name="Rectangle 414"/><path d="M11.288 2.576h1.254v36.55h-1.254V2.577z" fill="#fff" fill-rule="evenodd" data-name="Rectangle 415"/><path d="M12.542 2.576h1.254v36.55h-1.254V2.577z" fill="#fff" fill-rule="evenodd" data-name="Rectangle 416"/><path d="M13.796 2.576h1.254v36.55h-1.254V2.577z" fill="#fff" fill-rule="evenodd" data-name="Rectangle 417"/><path d="M15.05 2.576h1.255v36.55H15.05V2.577z" fill="#fff" fill-rule="evenodd" data-name="Rectangle 418"/><path d="M16.305 2.576h1.254v36.55h-1.254V2.577z" fill="#fff" fill-rule="evenodd" data-name="Rectangle 419"/><path d="M17.559 2.576h1.254v36.55H17.56V2.577z" fill="#fff" fill-rule="evenodd" data-name="Rectangle 420"/><path d="M18.813 2.576h1.254v36.55h-1.254V2.577z" fill="#fff" fill-rule="evenodd" data-name="Rectangle 421"/><path d="M20.067 2.576h1.255v36.55h-1.255V2.577z" fill="#fff" fill-rule="evenodd" data-name="Rectangle 422"/><path d="M21.322 2.576h1.254v36.55h-1.254V2.577z" fill="#fff" fill-rule="evenodd" data-name="Rectangle 423"/><path d="M22.576 2.576h1.254v36.55h-1.254V2.577z" fill="#fff" fill-rule="evenodd" data-name="Rectangle 424"/><path d="M23.83 2.576h1.254v36.55H23.83V2.577z" fill="#fff" fill-rule="evenodd" data-name="Rectangle 425"/><path d="M25.084 2.576h1.254v36.55h-1.254V2.577z" fill="#fff" fill-rule="evenodd" data-name="Rectangle 426"/><path d="M26.338 2.576h1.255v36.55h-1.255V2.577z" fill="#fff" fill-rule="evenodd" data-name="Rectangle 427"/><path d="M27.593 2.576h1.254v36.55h-1.254V2.577z" fill="#fff" fill-rule="evenodd" data-name="Rectangle 428"/><path d="M28.847 2.576H30.1v36.55h-1.254V2.577z" fill="#fff" fill-rule="evenodd" data-name="Rectangle 429"/><path d="M30.101 2.576h1.254v36.55h-1.254V2.577z" fill="#fff" fill-rule="evenodd" data-name="Rectangle 430"/><path d="M31.355 2.576h1.254v36.55h-1.254V2.577z" fill="#fff" fill-rule="evenodd" data-name="Rectangle 431"/><path d="M32.61 2.576h1.254v36.55h-1.255V2.577z" fill="#fff" fill-rule="evenodd" data-name="Rectangle 432"/><path d="M33.864 2.576h1.254v36.55h-1.254V2.577z" fill="#fff" fill-rule="evenodd" data-name="Rectangle 433"/><path d="M35.118 2.576h1.254v36.55h-1.254V2.577z" fill="#fff" fill-rule="evenodd" data-name="Rectangle 434"/><path d="M36.372 2.576h1.254v36.55h-1.254V2.577z" fill="#fff" fill-rule="evenodd" data-name="Rectangle 435"/><path d="M37.626 2.576h1.255v36.55h-1.255V2.577z" fill="#fff" fill-rule="evenodd" data-name="Rectangle 436"/><path d="M38.88 2.576h1.255v36.55H38.88V2.577z" fill="#fff" fill-rule="evenodd" data-name="Rectangle 437"/><path d="M40.135 2.576h1.254v36.55h-1.254V2.577z" fill="#fff" fill-rule="evenodd" data-name="Rectangle 438"/><path d="M41.389 2.576h1.254v36.55H41.39V2.577z" fill="#fff" fill-rule="evenodd" data-name="Rectangle 439"/><path d="M42.643 2.576h1.254v36.55h-1.254V2.577z" fill="#fff" fill-rule="evenodd" data-name="Rectangle 440"/><path d="M43.897 2.576h1.255v36.55h-1.255V2.577z" fill="#fff" fill-rule="evenodd" data-name="Rectangle 441"/><path d="M45.152 2.576h1.254v36.55h-1.254V2.577z" fill="#fff" fill-rule="evenodd" data-name="Rectangle 442"/><path d="M46.406 2.576h1.254v36.55h-1.254V2.577z" fill="#fff" fill-rule="evenodd" data-name="Rectangle 443"/><path d="M47.66 2.576h1.254v36.55H47.66V2.577z" fill="#fff" fill-rule="evenodd" data-name="Rectangle 444"/><path d="M48.914 2.576h1.254v36.55h-1.254V2.577z" fill="#fff" fill-rule="evenodd" data-name="Rectangle 445"/><path d="M50.168 2.576h1.255v36.55h-1.255V2.577z" fill="#fff" fill-rule="evenodd" data-name="Rectangle 446"/><path d="M51.423 2.576h1.254v36.55h-1.254V2.577z" fill="#fff" fill-rule="evenodd" data-name="Rectangle 447"/><path d="M52.677 2.576h1.254v36.55h-1.254V2.577z" fill="#fff" fill-rule="evenodd" data-name="Rectangle 448"/><path d="M53.931 2.576h1.254v36.55h-1.254V2.577z" fill="#fff" fill-rule="evenodd" data-name="Rectangle 449"/><path d="M55.185 2.576h1.255v36.55h-1.255V2.577z" fill="#fff" fill-rule="evenodd" data-name="Rectangle 450"/><path d="M56.44 2.576h1.254v36.55H56.44V2.577z" fill="#fff" fill-rule="evenodd" data-name="Rectangle 451"/><path d="M57.694 2.576h1.254v36.55h-1.254V2.577z" fill="#fff" fill-rule="evenodd" data-name="Rectangle 452"/><path d="M58.948 2.576h1.254v36.55h-1.254V2.577z" fill="#fff" fill-rule="evenodd" data-name="Rectangle 453"/><path d="M60.202 2.576h1.254v36.55h-1.254V2.577z" fill="#fff" fill-rule="evenodd" data-name="Rectangle 454"/><path d="M61.456 2.576h1.255v36.55h-1.255V2.577z" fill="#fff" fill-rule="evenodd" data-name="Rectangle 455"/><path d="M62.71 2.576h1.255v36.55H62.71V2.577z" fill="#fff" fill-rule="evenodd" data-name="Rectangle 456"/><path d="M63.965 2.576h1.254v36.55h-1.254V2.577z" fill="#fff" fill-rule="evenodd" data-name="Rectangle 457"/><path d="M65.219 2.576h1.254v36.55H65.22V2.577z" fill="#fff" fill-rule="evenodd" data-name="Rectangle 458"/><path d="M66.473 2.576h1.254v36.55h-1.254V2.577z" fill="#fff" fill-rule="evenodd" data-name="Rectangle 459"/><path d="M67.727 2.576h1.255v36.55h-1.255V2.577z" fill="#fff" fill-rule="evenodd" data-name="Rectangle 460"/><path d="M68.982 2.576h1.254v36.55h-1.254V2.577z" fill="#fff" fill-rule="evenodd" data-name="Rectangle 461"/><path d="M70.236 2.576h1.254v36.55h-1.254V2.577z" fill="#fff" fill-rule="evenodd" data-name="Rectangle 462"/><path d="M71.49 2.576h1.254v36.55H71.49V2.577z" fill="#fff" fill-rule="evenodd" data-name="Rectangle 463"/><path d="M72.744 2.576H74v36.55h-1.255V2.577z" fill="#fff" fill-rule="evenodd" data-name="Rectangle 464"/><path d="M73.999 2.576h1.254v36.55h-1.254V2.577z" fill="#fff" fill-rule="evenodd" data-name="Rectangle 465"/><path d="M75.253 2.576h1.254v36.55h-1.254V2.577z" fill="#fff" fill-rule="evenodd" data-name="Rectangle 466"/><path d="M76.507 2.576h1.254v36.55h-1.254V2.577z" fill="#fff" fill-rule="evenodd" data-name="Rectangle 467"/><path d="M77.761 2.576h1.254v36.55h-1.254V2.577z" fill="#fff" fill-rule="evenodd" data-name="Rectangle 468"/><path d="M79.015 2.576h1.255v36.55h-1.255V2.577z" fill="#fff" fill-rule="evenodd" data-name="Rectangle 469"/><path d="M80.27 2.576h1.254v36.55H80.27V2.577z" fill="#fff" fill-rule="evenodd" data-name="Rectangle 470"/><path d="M81.524 2.576h1.254v36.55h-1.254V2.577z" fill="#fff" fill-rule="evenodd" data-name="Rectangle 471"/><path d="M82.778 2.576h1.254v36.55h-1.254V2.577z" fill="#fff" fill-rule="evenodd" data-name="Rectangle 472"/><path d="M84.032 2.576h1.254v36.55h-1.254V2.577z" fill="#fff" fill-rule="evenodd" data-name="Rectangle 473"/><path d="M85.286 2.576h1.255v36.55h-1.255V2.577z" fill="#fff" fill-rule="evenodd" data-name="Rectangle 474"/><path d="M86.54 2.576h1.255v36.55H86.54V2.577z" fill="#fff" fill-rule="evenodd" data-name="Rectangle 475"/><path d="M87.795 2.576h1.254v36.55h-1.254V2.577z" fill="#fff" fill-rule="evenodd" data-name="Rectangle 476"/><path d="M89.05 2.576h1.253v36.55H89.05V2.577z" fill="#fff" fill-rule="evenodd" data-name="Rectangle 477"/><path d="M90.303 2.576h1.255v36.55h-1.255V2.577z" fill="#fff" fill-rule="evenodd" data-name="Rectangle 478"/><path d="M91.558 2.576h1.254v36.55h-1.254V2.577z" fill="#fff" fill-rule="evenodd" data-name="Rectangle 479"/><path d="M92.812 2.576h1.254v36.55h-1.254V2.577z" fill="#fff" fill-rule="evenodd" data-name="Rectangle 480"/><path d="M94.066 2.576h1.254v36.55h-1.254V2.577z" fill="#fff" fill-rule="evenodd" data-name="Rectangle 481"/><path d="M95.32 2.576h.207v36.55h-.207V2.577z" fill="#fff" fill-rule="evenodd" data-name="Rectangle 482"/><path d="M0-.051v41.75V-.05Z" fill="#fff" fill-rule="evenodd" data-name="Tracé 4182"/><path d="M0-.051h1.254v41.75H0V-.05z" fill="#fff" fill-rule="evenodd" data-name="Rectangle 483"/><path d="M1.254-.051h1.254v41.75H1.254V-.05z" fill="#fff" fill-rule="evenodd" data-name="Rectangle 484"/><path d="M2.508-.051h1.255v41.75H2.508V-.05z" fill="#fff" fill-rule="evenodd" data-name="Rectangle 485"/><path d="M3.763-.051h1.254v41.75H3.763V-.05z" fill="#fff" fill-rule="evenodd" data-name="Rectangle 486"/><path d="M5.017-.051H6.27v41.75H5.017V-.05z" fill="#fff" fill-rule="evenodd" data-name="Rectangle 487"/><path d="M6.271-.051h1.254v41.75H6.271V-.05z" fill="#fff" fill-rule="evenodd" data-name="Rectangle 488"/><path d="M7.525-.051H8.78v41.75H7.525V-.05z" fill="#fff" fill-rule="evenodd" data-name="Rectangle 489"/><path d="M8.78-.051h1.254v41.75H8.779V-.05z" fill="#fff" fill-rule="evenodd" data-name="Rectangle 490"/><path d="M10.034-.051h1.254v41.75h-1.254V-.05z" fill="#fff" fill-rule="evenodd" data-name="Rectangle 491"/><path d="M11.288-.051h1.254v41.75h-1.254V-.05z" fill="#fff" fill-rule="evenodd" data-name="Rectangle 492"/><path d="M12.542-.051h1.254v41.75h-1.254V-.05z" fill="#fff" fill-rule="evenodd" data-name="Rectangle 493"/><path d="M13.796-.051h1.254v41.75h-1.254V-.05z" fill="#fff" fill-rule="evenodd" data-name="Rectangle 494"/><path d="M15.05-.051h1.255v41.75H15.05V-.05z" fill="#fff" fill-rule="evenodd" data-name="Rectangle 495"/><path d="M16.305-.051h1.254v41.75h-1.254V-.05z" fill="#fff" fill-rule="evenodd" data-name="Rectangle 496"/><path d="M17.559-.051h1.254v41.75H17.56V-.05z" fill="#fff" fill-rule="evenodd" data-name="Rectangle 497"/><path d="M18.813-.051h1.254v41.75h-1.254V-.05z" fill="#fff" fill-rule="evenodd" data-name="Rectangle 498"/><path d="M20.067-.051h1.255v41.75h-1.255V-.05z" fill="#fff" fill-rule="evenodd" data-name="Rectangle 499"/><path d="M21.322-.051h1.254v41.75h-1.254V-.05z" fill="#fff" fill-rule="evenodd" data-name="Rectangle 500"/><path d="M22.576-.051h1.254v41.75h-1.254V-.05z" fill="#fff" fill-rule="evenodd" data-name="Rectangle 501"/><path d="M23.83-.051h1.254v41.75H23.83V-.05z" fill="#fff" fill-rule="evenodd" data-name="Rectangle 502"/><path d="M25.084-.051h1.254v41.75h-1.254V-.05z" fill="#fff" fill-rule="evenodd" data-name="Rectangle 503"/><path d="M26.338-.051h1.255v41.75h-1.255V-.05z" fill="#fff" fill-rule="evenodd" data-name="Rectangle 504"/><path d="M27.593-.051h1.254v41.75h-1.254V-.05z" fill="#fff" fill-rule="evenodd" data-name="Rectangle 505"/><path d="M28.847-.051H30.1v41.75h-1.254V-.05z" fill="#fff" fill-rule="evenodd" data-name="Rectangle 506"/><path d="M30.101-.051h1.254v41.75h-1.254V-.05z" fill="#fff" fill-rule="evenodd" data-name="Rectangle 507"/><path d="M31.355-.051h1.254v41.75h-1.254V-.05z" fill="#fff" fill-rule="evenodd" data-name="Rectangle 508"/><path d="M32.61-.051h1.254v41.75h-1.255V-.05z" fill="#fff" fill-rule="evenodd" data-name="Rectangle 509"/><path d="M33.864-.051h1.254v41.75h-1.254V-.05z" fill="#fff" fill-rule="evenodd" data-name="Rectangle 510"/><path d="M35.118-.051h1.254v41.75h-1.254V-.05z" fill="#fff" fill-rule="evenodd" data-name="Rectangle 511"/><path d="M36.372-.051h1.254v41.75h-1.254V-.05z" fill="#fff" fill-rule="evenodd" data-name="Rectangle 512"/><path d="M37.626-.051h1.255v41.75h-1.255V-.05z" fill="#fff" fill-rule="evenodd" data-name="Rectangle 513"/><path d="M38.88-.051h1.255v41.75H38.88V-.05z" fill="#fff" fill-rule="evenodd" data-name="Rectangle 514"/><path d="M40.135-.051h1.254v41.75h-1.254V-.05z" fill="#fff" fill-rule="evenodd" data-name="Rectangle 515"/><path d="M41.389-.051h1.254v41.75H41.39V-.05z" fill="#fff" fill-rule="evenodd" data-name="Rectangle 516"/><path d="M42.643-.051h1.254v41.75h-1.254V-.05z" fill="#fff" fill-rule="evenodd" data-name="Rectangle 517"/><path d="M43.897-.051h1.255v41.75h-1.255V-.05z" fill="#fff" fill-rule="evenodd" data-name="Rectangle 518"/><path d="M45.152-.051h1.254v41.75h-1.254V-.05z" fill="#fff" fill-rule="evenodd" data-name="Rectangle 519"/><path d="M46.406-.051h1.254v41.75h-1.254V-.05z" fill="#fff" fill-rule="evenodd" data-name="Rectangle 520"/><path d="M47.66-.051h1.254v41.75H47.66V-.05z" fill="#fff" fill-rule="evenodd" data-name="Rectangle 521"/><path d="M48.914-.051h1.254v41.75h-1.254V-.05z" fill="#fff" fill-rule="evenodd" data-name="Rectangle 522"/><path d="M50.168-.051h1.255v41.75h-1.255V-.05z" fill="#fff" fill-rule="evenodd" data-name="Rectangle 523"/><path d="M51.423-.051h1.254v41.75h-1.254V-.05z" fill="#fff" fill-rule="evenodd" data-name="Rectangle 524"/><path d="M52.677-.051h1.254v41.75h-1.254V-.05z" fill="#fff" fill-rule="evenodd" data-name="Rectangle 525"/><path d="M53.931-.051h1.254v41.75h-1.254V-.05z" fill="#fff" fill-rule="evenodd" data-name="Rectangle 526"/><path d="M55.185-.051h1.255v41.75h-1.255V-.05z" fill="#fff" fill-rule="evenodd" data-name="Rectangle 527"/><path d="M56.44-.051h1.254v41.75H56.44V-.05z" fill="#fff" fill-rule="evenodd" data-name="Rectangle 528"/><path d="M57.694-.051h1.254v41.75h-1.254V-.05z" fill="#fff" fill-rule="evenodd" data-name="Rectangle 529"/><path d="M58.948-.051h1.254v41.75h-1.254V-.05z" fill="#fff" fill-rule="evenodd" data-name="Rectangle 530"/><path d="M60.202-.051h1.254v41.75h-1.254V-.05z" fill="#fff" fill-rule="evenodd" data-name="Rectangle 531"/><path d="M61.456-.051h1.255v41.75h-1.255V-.05z" fill="#fff" fill-rule="evenodd" data-name="Rectangle 532"/><path d="M62.71-.051h1.255v41.75H62.71V-.05z" fill="#fff" fill-rule="evenodd" data-name="Rectangle 533"/><path d="M63.965-.051h1.254v41.75h-1.254V-.05z" fill="#fff" fill-rule="evenodd" data-name="Rectangle 534"/><path d="M65.219-.051h1.254v41.75H65.22V-.05z" fill="#fff" fill-rule="evenodd" data-name="Rectangle 535"/><path d="M66.473-.051h1.254v41.75h-1.254V-.05z" fill="#fff" fill-rule="evenodd" data-name="Rectangle 536"/><path d="M67.727-.051h1.255v41.75h-1.255V-.05z" fill="#fff" fill-rule="evenodd" data-name="Rectangle 537"/><path d="M68.982-.051h1.254v41.75h-1.254V-.05z" fill="#fff" fill-rule="evenodd" data-name="Rectangle 538"/><path d="M70.236-.051h1.254v41.75h-1.254V-.05z" fill="#fff" fill-rule="evenodd" data-name="Rectangle 539"/><path d="M71.49-.051h1.254v41.75H71.49V-.05z" fill="#fff" fill-rule="evenodd" data-name="Rectangle 540"/><path d="M72.744-.051H74v41.75h-1.255V-.05z" fill="#fff" fill-rule="evenodd" data-name="Rectangle 541"/><path d="M73.999-.051h1.254v41.75h-1.254V-.05z" fill="#fff" fill-rule="evenodd" data-name="Rectangle 542"/><path d="M75.253-.051h1.254v41.75h-1.254V-.05z" fill="#fff" fill-rule="evenodd" data-name="Rectangle 543"/><path d="M76.507-.051h1.254v41.75h-1.254V-.05z" fill="#fff" fill-rule="evenodd" data-name="Rectangle 544"/><path d="M77.761-.051h1.254v41.75h-1.254V-.05z" fill="#fff" fill-rule="evenodd" data-name="Rectangle 545"/><path d="M79.015-.051h1.255v41.75h-1.255V-.05z" fill="#fff" fill-rule="evenodd" data-name="Rectangle 546"/><path d="M80.27-.051h1.254v41.75H80.27V-.05z" fill="#fff" fill-rule="evenodd" data-name="Rectangle 547"/><path d="M81.524-.051h1.254v41.75h-1.254V-.05z" fill="#fff" fill-rule="evenodd" data-name="Rectangle 548"/><path d="M82.778-.051h1.254v41.75h-1.254V-.05z" fill="#fff" fill-rule="evenodd" data-name="Rectangle 549"/><path d="M84.032-.051h1.254v41.75h-1.254V-.05z" fill="#fff" fill-rule="evenodd" data-name="Rectangle 550"/><path d="M85.286-.051h1.255v41.75h-1.255V-.05z" fill="#fff" fill-rule="evenodd" data-name="Rectangle 551"/><path d="M86.54-.051h1.255v41.75H86.54V-.05z" fill="#fff" fill-rule="evenodd" data-name="Rectangle 552"/><path d="M87.795-.051h1.254v41.75h-1.254V-.05z" fill="#fff" fill-rule="evenodd" data-name="Rectangle 553"/><path d="M89.05-.051h1.253v41.75H89.05V-.05z" fill="#fff" fill-rule="evenodd" data-name="Rectangle 554"/><path d="M90.303-.051h1.255v41.75h-1.255V-.05z" fill="#fff" fill-rule="evenodd" data-name="Rectangle 555"/><path d="M91.558-.051h1.254v41.75h-1.254V-.05z" fill="#fff" fill-rule="evenodd" data-name="Rectangle 556"/><path d="M92.812-.051h1.254v41.75h-1.254V-.05z" fill="#fff" fill-rule="evenodd" data-name="Rectangle 557"/><path d="M94.066-.051h1.254v41.75h-1.254V-.05z" fill="#fff" fill-rule="evenodd" data-name="Rectangle 558"/><path d="M95.32-.051h1.254v41.75H95.32V-.05z" fill="#fff" fill-rule="evenodd" data-name="Rectangle 559"/><path d="M96.574-.051h1.255v41.75h-1.255V-.05z" fill="#fff" fill-rule="evenodd" data-name="Rectangle 560"/><path d="M97.829-.051h.374v41.75h-.374V-.05z" fill="#fff" fill-rule="evenodd" data-name="Rectangle 561"/></g></g></g></g><g data-name="Groupe 300"><g data-name="Groupe 296"><path d="M667.764 417.47c0 6.846-2.202 13.365-6.215 18.792l.096-1.265a1.587 1.587 0 0 0-1.464-1.702 1.581 1.581 0 0 0-1.702 1.463l-.456 6.06a1.587 1.587 0 0 0 1.464 1.703l6.06.456a1.588 1.588 0 0 0 .238-3.166l-2.788-.21a34.668 34.668 0 0 0 7.942-22.13c0-9.457-3.732-18.318-10.51-24.952a1.59 1.59 0 0 0-2.245.025 1.589 1.589 0 0 0 .025 2.245c6.161 6.03 9.555 14.086 9.555 22.682Z" fill="#fff" fill-rule="evenodd" data-name="Tracé 4184"/><g data-name="Groupe 295" transform="translate(657.732 392.067)" clip-path="url(&quot;#c&quot;)"><g data-name="Groupe 282"><path d="M-.16-.161h.432v51.14H-.16V-.162z" fill="#fff" fill-rule="evenodd" data-name="Rectangle 562"/></g><g data-name="Groupe 283"><path d="M.272-.161h1.166v51.14H.272V-.162z" fill="#fff" fill-rule="evenodd" data-name="Rectangle 563"/></g><g data-name="Groupe 284"><path d="M1.438-.161h1.167v51.14H1.438V-.162z" fill="#fff" fill-rule="evenodd" data-name="Rectangle 564"/></g><g data-name="Groupe 285"><path d="M2.605-.161H3.77v51.14H2.605V-.162z" fill="#fff" fill-rule="evenodd" data-name="Rectangle 565"/></g><g data-name="Groupe 286"><path d="M3.771-.161h1.167v51.14H3.77V-.162z" fill="#fff" fill-rule="evenodd" data-name="Rectangle 566"/></g><g data-name="Groupe 287"><path d="M4.938-.161h1.166v51.14H4.938V-.162z" fill="#fff" fill-rule="evenodd" data-name="Rectangle 567"/></g><g data-name="Groupe 288"><path d="M6.104-.161h1.167v51.14H6.104V-.162z" fill="#fff" fill-rule="evenodd" data-name="Rectangle 568"/></g><g data-name="Groupe 289"><path d="M7.27-.161h1.167v51.14H7.271V-.162z" fill="#fff" fill-rule="evenodd" data-name="Rectangle 569"/></g><g data-name="Groupe 290"><path d="M8.437-.161h1.167v51.14H8.437V-.162z" fill="#fff" fill-rule="evenodd" data-name="Rectangle 570"/></g><g data-name="Groupe 291"><path d="M9.604-.161h1.166v51.14H9.604V-.162z" fill="#fff" fill-rule="evenodd" data-name="Rectangle 571"/></g><g data-name="Groupe 292"><path d="M10.77-.161h1.167v51.14H10.77V-.162z" fill="#fff" fill-rule="evenodd" data-name="Rectangle 572"/></g><g data-name="Groupe 293"><path d="M11.937-.161h1.166v51.14h-1.166V-.162z" fill="#fff" fill-rule="evenodd" data-name="Rectangle 573"/></g><g data-name="Groupe 294"><path d="M13.103-.161h.104v51.14h-.104V-.162z" fill="#fff" fill-rule="evenodd" data-name="Rectangle 574"/></g></g></g><g data-name="Groupe 299"><g data-name="Groupe 298"><path d="M665.675 443.776c-.064 0-.127-.003-.191-.008l-6.057-.456a2.365 2.365 0 0 1-1.627-.822 2.362 2.362 0 0 1-.568-1.732l.456-6.06a2.371 2.371 0 0 1 .835-1.641 2.333 2.333 0 0 1 1.728-.553 2.359 2.359 0 0 1 1.617.821c.145.169.264.353.355.55a30.548 30.548 0 0 0 4.747-16.404c0-8.381-3.308-16.235-9.316-22.115a2.385 2.385 0 0 1-.037-3.367 2.387 2.387 0 0 1 3.368-.037c6.93 6.783 10.748 15.846 10.748 25.519 0 7.847-2.48 15.231-7.188 21.45l1.3.098c.634.048 1.213.34 1.627.822.415.483.617 1.098.569 1.732a2.35 2.35 0 0 1-.822 1.625c-.437.376-.98.578-1.544.578Zm-5.625-9.693a.761.761 0 0 0-.499.184.795.795 0 0 0-.28.55l-.456 6.061a.79.79 0 0 0 .732.851l6.06.456a.788.788 0 0 0 .577-.19.79.79 0 0 0-.458-1.392l-4.314-.325.973-1.182c5.077-6.168 7.76-13.646 7.76-21.625 0-9.243-3.647-17.902-10.271-24.384a.795.795 0 0 0-1.11 1.135c6.316 6.18 9.794 14.437 9.794 23.249 0 6.966-2.203 13.627-6.37 19.263l-1.636 2.213.301-4.01a.787.787 0 0 0-.189-.577.788.788 0 0 0-.614-.277Z" fill="#fff" fill-rule="evenodd" data-name="Tracé 4186"/><g data-name="Groupe 297" transform="translate(656.94 391.275)" clip-path="url(&quot;#d&quot;)"><path d="M1.507 1.506h.01v49.42h-.01V1.505z" fill="#fff" fill-rule="evenodd" data-name="Rectangle 575"/><path d="M1.517 1.506h.19v49.42h-.19V1.505z" fill="#fff" fill-rule="evenodd" data-name="Rectangle 576"/><path d="M1.707 1.506h.19v49.42h-.19V1.505z" fill="#fff" fill-rule="evenodd" data-name="Rectangle 577"/><path d="M1.897 1.506h.19v49.42h-.19V1.505z" fill="#fff" fill-rule="evenodd" data-name="Rectangle 578"/><path d="M2.086 1.506h.19v49.42h-.19V1.505z" fill="#fff" fill-rule="evenodd" data-name="Rectangle 579"/><path d="M2.276 1.506h.19v49.42h-.19V1.505z" fill="#fff" fill-rule="evenodd" data-name="Rectangle 580"/><path d="M2.466 1.506h.19v49.42h-.19V1.505z" fill="#fff" fill-rule="evenodd" data-name="Rectangle 581"/><path d="M2.655 1.506h.19v49.42h-.19V1.505z" fill="#fff" fill-rule="evenodd" data-name="Rectangle 582"/><path d="M2.845 1.506h.19v49.42h-.19V1.505z" fill="#fff" fill-rule="evenodd" data-name="Rectangle 583"/><path d="M3.034 1.506h.19v49.42h-.19V1.505z" fill="#fff" fill-rule="evenodd" data-name="Rectangle 584"/><path d="M3.224 1.506h.19v49.42h-.19V1.505z" fill="#fff" fill-rule="evenodd" data-name="Rectangle 585"/><path d="M3.414 1.506h.19v49.42h-.19V1.505z" fill="#fff" fill-rule="evenodd" data-name="Rectangle 586"/><path d="M3.604 1.506h.19v49.42h-.19V1.505z" fill="#fff" fill-rule="evenodd" data-name="Rectangle 587"/><path d="M3.793 1.506h.19v49.42h-.19V1.505z" fill="#fff" fill-rule="evenodd" data-name="Rectangle 588"/><path d="M3.983 1.506h.19v49.42h-.19V1.505z" fill="#fff" fill-rule="evenodd" data-name="Rectangle 589"/><path d="M4.172 1.506h.19v49.42h-.19V1.505z" fill="#fff" fill-rule="evenodd" data-name="Rectangle 590"/><path d="M4.362 1.506h.19v49.42h-.19V1.505z" fill="#fff" fill-rule="evenodd" data-name="Rectangle 591"/><path d="M4.552 1.506h.19v49.42h-.19V1.505z" fill="#fff" fill-rule="evenodd" data-name="Rectangle 592"/><path d="M4.741 1.506h.19v49.42h-.19V1.505z" fill="#fff" fill-rule="evenodd" data-name="Rectangle 593"/><path d="M4.931 1.506h.19v49.42h-.19V1.505z" fill="#fff" fill-rule="evenodd" data-name="Rectangle 594"/><path d="M5.12 1.506h.19v49.42h-.19V1.505z" fill="#fff" fill-rule="evenodd" data-name="Rectangle 595"/><path d="M5.31 1.506h.19v49.42h-.19V1.505z" fill="#fff" fill-rule="evenodd" data-name="Rectangle 596"/><path d="M5.5 1.506h.19v49.42H5.5V1.505z" fill="#fff" fill-rule="evenodd" data-name="Rectangle 597"/><path d="M5.69 1.506h.19v49.42h-.19V1.505z" fill="#fff" fill-rule="evenodd" data-name="Rectangle 598"/><path d="M5.88 1.506h.19v49.42h-.19V1.505z" fill="#fff" fill-rule="evenodd" data-name="Rectangle 599"/><path d="M6.069 1.506h.19v49.42h-.19V1.505z" fill="#fff" fill-rule="evenodd" data-name="Rectangle 600"/><path d="M6.259 1.506h.19v49.42h-.19V1.505z" fill="#fff" fill-rule="evenodd" data-name="Rectangle 601"/><path d="M6.448 1.506h.19v49.42h-.19V1.505z" fill="#fff" fill-rule="evenodd" data-name="Rectangle 602"/><path d="M6.638 1.506h.19v49.42h-.19V1.505z" fill="#fff" fill-rule="evenodd" data-name="Rectangle 603"/><path d="M6.828 1.506h.19v49.42h-.19V1.505z" fill="#fff" fill-rule="evenodd" data-name="Rectangle 604"/><path d="M7.017 1.506h.19v49.42h-.19V1.505z" fill="#fff" fill-rule="evenodd" data-name="Rectangle 605"/><path d="M7.207 1.506h.19v49.42h-.19V1.505z" fill="#fff" fill-rule="evenodd" data-name="Rectangle 606"/><path d="M7.397 1.506h.19v49.42h-.19V1.505z" fill="#fff" fill-rule="evenodd" data-name="Rectangle 607"/><path d="M7.586 1.506h.19v49.42h-.19V1.505z" fill="#fff" fill-rule="evenodd" data-name="Rectangle 608"/><path d="M7.776 1.506h.19v49.42h-.19V1.505z" fill="#fff" fill-rule="evenodd" data-name="Rectangle 609"/><path d="M7.966 1.506h.19v49.42h-.19V1.505z" fill="#fff" fill-rule="evenodd" data-name="Rectangle 610"/><path d="M8.155 1.506h.19v49.42h-.19V1.505z" fill="#fff" fill-rule="evenodd" data-name="Rectangle 611"/><path d="M8.345 1.506h.19v49.42h-.19V1.505z" fill="#fff" fill-rule="evenodd" data-name="Rectangle 612"/><path d="M8.535 1.506h.19v49.42h-.19V1.505z" fill="#fff" fill-rule="evenodd" data-name="Rectangle 613"/><path d="M8.724 1.506h.19v49.42h-.19V1.505z" fill="#fff" fill-rule="evenodd" data-name="Rectangle 614"/><path d="M8.914 1.506h.19v49.42h-.19V1.505z" fill="#fff" fill-rule="evenodd" data-name="Rectangle 615"/><path d="M9.104 1.506h.19v49.42h-.19V1.505z" fill="#fff" fill-rule="evenodd" data-name="Rectangle 616"/><path d="M9.293 1.506h.19v49.42h-.19V1.505z" fill="#fff" fill-rule="evenodd" data-name="Rectangle 617"/><path d="M9.483 1.506h.19v49.42h-.19V1.505z" fill="#fff" fill-rule="evenodd" data-name="Rectangle 618"/><path d="M9.673 1.506h.19v49.42h-.19V1.505z" fill="#fff" fill-rule="evenodd" data-name="Rectangle 619"/><path d="M9.862 1.506h.19v49.42h-.19V1.505z" fill="#fff" fill-rule="evenodd" data-name="Rectangle 620"/><path d="M10.052 1.506h.19v49.42h-.19V1.505z" fill="#fff" fill-rule="evenodd" data-name="Rectangle 621"/><path d="M10.242 1.506h.19v49.42h-.19V1.505z" fill="#fff" fill-rule="evenodd" data-name="Rectangle 622"/><path d="M10.431 1.506h.19v49.42h-.19V1.505z" fill="#fff" fill-rule="evenodd" data-name="Rectangle 623"/><path d="M10.62 1.506h.19v49.42h-.19V1.505z" fill="#fff" fill-rule="evenodd" data-name="Rectangle 624"/><path d="M10.81 1.506H11v49.42h-.19V1.505z" fill="#fff" fill-rule="evenodd" data-name="Rectangle 625"/><path d="M11 1.506h.19v49.42H11V1.505z" fill="#fff" fill-rule="evenodd" data-name="Rectangle 626"/><path d="M11.19 1.506h.19v49.42h-.19V1.505z" fill="#fff" fill-rule="evenodd" data-name="Rectangle 627"/><path d="M11.38 1.506h.19v49.42h-.19V1.505z" fill="#fff" fill-rule="evenodd" data-name="Rectangle 628"/><path d="M11.57 1.506h.189v49.42h-.19V1.505z" fill="#fff" fill-rule="evenodd" data-name="Rectangle 629"/><path d="M11.759 1.506h.19v49.42h-.19V1.505z" fill="#fff" fill-rule="evenodd" data-name="Rectangle 630"/><path d="M11.948 1.506h.19v49.42h-.19V1.505z" fill="#fff" fill-rule="evenodd" data-name="Rectangle 631"/><path d="M12.138 1.506h.19v49.42h-.19V1.505z" fill="#fff" fill-rule="evenodd" data-name="Rectangle 632"/><path d="M12.328 1.506h.19v49.42h-.19V1.505z" fill="#fff" fill-rule="evenodd" data-name="Rectangle 633"/><path d="M12.517 1.506h.19v49.42h-.19V1.505z" fill="#fff" fill-rule="evenodd" data-name="Rectangle 634"/><path d="M12.707 1.506h.19v49.42h-.19V1.505z" fill="#fff" fill-rule="evenodd" data-name="Rectangle 635"/><path d="M12.897 1.506h.19v49.42h-.19V1.505z" fill="#fff" fill-rule="evenodd" data-name="Rectangle 636"/><path d="M13.086 1.506h.12v49.42h-.12V1.505z" fill="#fff" fill-rule="evenodd" data-name="Rectangle 637"/><path d="M-.24-.24H0V52.5h-.24V-.24z" fill="#fff" fill-rule="evenodd" data-name="Rectangle 638"/><path d="M0-.24h.19V52.5H0V-.24z" fill="#fff" fill-rule="evenodd" data-name="Rectangle 639"/><path d="M.19-.24h.19V52.5H.19V-.24z" fill="#fff" fill-rule="evenodd" data-name="Rectangle 640"/><path d="M.38-.24h.189V52.5h-.19V-.24z" fill="#fff" fill-rule="evenodd" data-name="Rectangle 641"/><path d="M.569-.24h.19V52.5h-.19V-.24z" fill="#fff" fill-rule="evenodd" data-name="Rectangle 642"/><path d="M.759-.24h.19V52.5h-.19V-.24z" fill="#fff" fill-rule="evenodd" data-name="Rectangle 643"/><path d="M.948-.24h.19V52.5h-.19V-.24z" fill="#fff" fill-rule="evenodd" data-name="Rectangle 644"/><path d="M1.138-.24h.19V52.5h-.19V-.24z" fill="#fff" fill-rule="evenodd" data-name="Rectangle 645"/><path d="M1.328-.24h.19V52.5h-.19V-.24z" fill="#fff" fill-rule="evenodd" data-name="Rectangle 646"/><path d="M1.517-.24h.19V52.5h-.19V-.24z" fill="#fff" fill-rule="evenodd" data-name="Rectangle 647"/><path d="M1.707-.24h.19V52.5h-.19V-.24z" fill="#fff" fill-rule="evenodd" data-name="Rectangle 648"/><path d="M1.897-.24h.19V52.5h-.19V-.24z" fill="#fff" fill-rule="evenodd" data-name="Rectangle 649"/><path d="M2.086-.24h.19V52.5h-.19V-.24z" fill="#fff" fill-rule="evenodd" data-name="Rectangle 650"/><path d="M2.276-.24h.19V52.5h-.19V-.24z" fill="#fff" fill-rule="evenodd" data-name="Rectangle 651"/><path d="M2.466-.24h.19V52.5h-.19V-.24z" fill="#fff" fill-rule="evenodd" data-name="Rectangle 652"/><path d="M2.655-.24h.19V52.5h-.19V-.24z" fill="#fff" fill-rule="evenodd" data-name="Rectangle 653"/><path d="M2.845-.24h.19V52.5h-.19V-.24z" fill="#fff" fill-rule="evenodd" data-name="Rectangle 654"/><path d="M3.034-.24h.19V52.5h-.19V-.24z" fill="#fff" fill-rule="evenodd" data-name="Rectangle 655"/><path d="M3.224-.24h.19V52.5h-.19V-.24z" fill="#fff" fill-rule="evenodd" data-name="Rectangle 656"/><path d="M3.414-.24h.19V52.5h-.19V-.24z" fill="#fff" fill-rule="evenodd" data-name="Rectangle 657"/><path d="M3.604-.24h.19V52.5h-.19V-.24z" fill="#fff" fill-rule="evenodd" data-name="Rectangle 658"/><path d="M3.793-.24h.19V52.5h-.19V-.24z" fill="#fff" fill-rule="evenodd" data-name="Rectangle 659"/><path d="M3.983-.24h.19V52.5h-.19V-.24z" fill="#fff" fill-rule="evenodd" data-name="Rectangle 660"/><path d="M4.172-.24h.19V52.5h-.19V-.24z" fill="#fff" fill-rule="evenodd" data-name="Rectangle 661"/><path d="M4.362-.24h.19V52.5h-.19V-.24z" fill="#fff" fill-rule="evenodd" data-name="Rectangle 662"/><path d="M4.552-.24h.19V52.5h-.19V-.24z" fill="#fff" fill-rule="evenodd" data-name="Rectangle 663"/><path d="M4.741-.24h.19V52.5h-.19V-.24z" fill="#fff" fill-rule="evenodd" data-name="Rectangle 664"/><path d="M4.931-.24h.19V52.5h-.19V-.24z" fill="#fff" fill-rule="evenodd" data-name="Rectangle 665"/><path d="M5.12-.24h.19V52.5h-.19V-.24z" fill="#fff" fill-rule="evenodd" data-name="Rectangle 666"/><path d="M5.31-.24h.19V52.5h-.19V-.24z" fill="#fff" fill-rule="evenodd" data-name="Rectangle 667"/><path d="M5.5-.24h.19V52.5H5.5V-.24z" fill="#fff" fill-rule="evenodd" data-name="Rectangle 668"/><path d="M5.69-.24h.19V52.5h-.19V-.24z" fill="#fff" fill-rule="evenodd" data-name="Rectangle 669"/><path d="M5.88-.24h.19V52.5h-.19V-.24z" fill="#fff" fill-rule="evenodd" data-name="Rectangle 670"/><path d="M6.069-.24h.19V52.5h-.19V-.24z" fill="#fff" fill-rule="evenodd" data-name="Rectangle 671"/><path d="M6.259-.24h.19V52.5h-.19V-.24z" fill="#fff" fill-rule="evenodd" data-name="Rectangle 672"/><path d="M6.448-.24h.19V52.5h-.19V-.24z" fill="#fff" fill-rule="evenodd" data-name="Rectangle 673"/><path d="M6.638-.24h.19V52.5h-.19V-.24z" fill="#fff" fill-rule="evenodd" data-name="Rectangle 674"/><path d="M6.828-.24h.19V52.5h-.19V-.24z" fill="#fff" fill-rule="evenodd" data-name="Rectangle 675"/><path d="M7.017-.24h.19V52.5h-.19V-.24z" fill="#fff" fill-rule="evenodd" data-name="Rectangle 676"/><path d="M7.207-.24h.19V52.5h-.19V-.24z" fill="#fff" fill-rule="evenodd" data-name="Rectangle 677"/><path d="M7.397-.24h.19V52.5h-.19V-.24z" fill="#fff" fill-rule="evenodd" data-name="Rectangle 678"/><path d="M7.586-.24h.19V52.5h-.19V-.24z" fill="#fff" fill-rule="evenodd" data-name="Rectangle 679"/><path d="M7.776-.24h.19V52.5h-.19V-.24z" fill="#fff" fill-rule="evenodd" data-name="Rectangle 680"/><path d="M7.966-.24h.19V52.5h-.19V-.24z" fill="#fff" fill-rule="evenodd" data-name="Rectangle 681"/><path d="M8.155-.24h.19V52.5h-.19V-.24z" fill="#fff" fill-rule="evenodd" data-name="Rectangle 682"/><path d="M8.345-.24h.19V52.5h-.19V-.24z" fill="#fff" fill-rule="evenodd" data-name="Rectangle 683"/><path d="M8.535-.24h.19V52.5h-.19V-.24z" fill="#fff" fill-rule="evenodd" data-name="Rectangle 684"/><path d="M8.724-.24h.19V52.5h-.19V-.24z" fill="#fff" fill-rule="evenodd" data-name="Rectangle 685"/><path d="M8.914-.24h.19V52.5h-.19V-.24z" fill="#fff" fill-rule="evenodd" data-name="Rectangle 686"/><path d="M9.104-.24h.19V52.5h-.19V-.24z" fill="#fff" fill-rule="evenodd" data-name="Rectangle 687"/><path d="M9.293-.24h.19V52.5h-.19V-.24z" fill="#fff" fill-rule="evenodd" data-name="Rectangle 688"/><path d="M9.483-.24h.19V52.5h-.19V-.24z" fill="#fff" fill-rule="evenodd" data-name="Rectangle 689"/><path d="M9.673-.24h.19V52.5h-.19V-.24z" fill="#fff" fill-rule="evenodd" data-name="Rectangle 690"/><path d="M9.862-.24h.19V52.5h-.19V-.24z" fill="#fff" fill-rule="evenodd" data-name="Rectangle 691"/><path d="M10.052-.24h.19V52.5h-.19V-.24z" fill="#fff" fill-rule="evenodd" data-name="Rectangle 692"/><path d="M10.242-.24h.19V52.5h-.19V-.24z" fill="#fff" fill-rule="evenodd" data-name="Rectangle 693"/><path d="M10.431-.24h.19V52.5h-.19V-.24z" fill="#fff" fill-rule="evenodd" data-name="Rectangle 694"/><path d="M10.62-.24h.19V52.5h-.19V-.24z" fill="#fff" fill-rule="evenodd" data-name="Rectangle 695"/><path d="M10.81-.24H11V52.5h-.19V-.24z" fill="#fff" fill-rule="evenodd" data-name="Rectangle 696"/><path d="M11-.24h.19V52.5H11V-.24z" fill="#fff" fill-rule="evenodd" data-name="Rectangle 697"/><path d="M11.19-.24h.19V52.5h-.19V-.24z" fill="#fff" fill-rule="evenodd" data-name="Rectangle 698"/><path d="M11.38-.24h.19V52.5h-.19V-.24z" fill="#fff" fill-rule="evenodd" data-name="Rectangle 699"/><path d="M11.57-.24h.189V52.5h-.19V-.24z" fill="#fff" fill-rule="evenodd" data-name="Rectangle 700"/><path d="M11.759-.24h.19V52.5h-.19V-.24z" fill="#fff" fill-rule="evenodd" data-name="Rectangle 701"/><path d="M11.948-.24h.19V52.5h-.19V-.24z" fill="#fff" fill-rule="evenodd" data-name="Rectangle 702"/><path d="M12.138-.24h.19V52.5h-.19V-.24z" fill="#fff" fill-rule="evenodd" data-name="Rectangle 703"/><path d="M12.328-.24h.19V52.5h-.19V-.24z" fill="#fff" fill-rule="evenodd" data-name="Rectangle 704"/><path d="M12.517-.24h.19V52.5h-.19V-.24z" fill="#fff" fill-rule="evenodd" data-name="Rectangle 705"/><path d="M12.707-.24h.19V52.5h-.19V-.24z" fill="#fff" fill-rule="evenodd" data-name="Rectangle 706"/><path d="M12.897-.24h.19V52.5h-.19V-.24z" fill="#fff" fill-rule="evenodd" data-name="Rectangle 707"/><path d="M13.086-.24h.19V52.5h-.19V-.24z" fill="#fff" fill-rule="evenodd" data-name="Rectangle 708"/><path d="M13.276-.24h.19V52.5h-.19V-.24z" fill="#fff" fill-rule="evenodd" data-name="Rectangle 709"/><path d="M13.466-.24h.19V52.5h-.19V-.24z" fill="#fff" fill-rule="evenodd" data-name="Rectangle 710"/><path d="M13.655-.24h.19V52.5h-.19V-.24z" fill="#fff" fill-rule="evenodd" data-name="Rectangle 711"/><path d="M13.845-.24h.19V52.5h-.19V-.24z" fill="#fff" fill-rule="evenodd" data-name="Rectangle 712"/><path d="M14.035-.24h.19V52.5h-.19V-.24z" fill="#fff" fill-rule="evenodd" data-name="Rectangle 713"/><path d="M14.224-.24h.19V52.5h-.19V-.24z" fill="#fff" fill-rule="evenodd" data-name="Rectangle 714"/><path d="M14.414-.24h.19V52.5h-.19V-.24z" fill="#fff" fill-rule="evenodd" data-name="Rectangle 715"/><path d="M14.604-.24h.19V52.5h-.19V-.24z" fill="#fff" fill-rule="evenodd" data-name="Rectangle 716"/><path d="M14.793 52.5V-.24 52.5Z" fill="#fff" fill-rule="evenodd" data-name="Tracé 4187"/></g></g></g></g><g data-name="Groupe 303"><g data-name="Groupe 302"><path d="M631.951 428.367a4.633 4.633 0 0 1-4.627-4.627 1.587 1.587 0 1 0-3.175 0c0 3.758 2.672 6.902 6.215 7.638v2.022a1.587 1.587 0 1 0 3.175 0v-2.022c3.544-.736 6.215-3.88 6.215-7.638 0-4.302-3.5-7.803-7.803-7.803a4.633 4.633 0 0 1-4.627-4.627 4.633 4.633 0 0 1 4.627-4.627 4.633 4.633 0 0 1 4.628 4.627 1.587 1.587 0 1 0 3.175 0c0-3.758-2.671-6.902-6.215-7.638v-2.023a1.587 1.587 0 1 0-3.175 0v2.023c-3.543.736-6.215 3.88-6.215 7.638 0 4.302 3.5 7.802 7.802 7.802a4.633 4.633 0 0 1 4.628 4.628 4.633 4.633 0 0 1-4.628 4.627Z" fill="#fff" fill-rule="evenodd" data-name="Tracé 4189"/><g data-name="Groupe 301" transform="translate(624.149 400.062)" clip-path="url(&quot;#e&quot;)"><path d="M0 0h.63v34.926H0V0z" fill="#fff" fill-rule="evenodd" data-name="Rectangle 717"/><path d="M.63 0h1.167v34.926H.631V0z" fill="#fff" fill-rule="evenodd" data-name="Rectangle 718"/><path d="M1.797 0h1.167v34.926H1.797V0z" fill="#fff" fill-rule="evenodd" data-name="Rectangle 719"/><path d="M2.964 0H4.13v34.926H2.964V0z" fill="#fff" fill-rule="evenodd" data-name="Rectangle 720"/><path d="M4.13 0h1.167v34.926H4.13V0z" fill="#fff" fill-rule="evenodd" data-name="Rectangle 721"/><path d="M5.297 0h1.166v34.926H5.297V0z" fill="#fff" fill-rule="evenodd" data-name="Rectangle 722"/><path d="M6.463 0H7.63v34.926H6.463V0z" fill="#fff" fill-rule="evenodd" data-name="Rectangle 723"/><path d="M7.63 0h1.166v34.926H7.63V0z" fill="#fff" fill-rule="evenodd" data-name="Rectangle 724"/><path d="M8.796 0h1.167v34.926H8.796V0z" fill="#fff" fill-rule="evenodd" data-name="Rectangle 725"/><path d="M9.963 0h1.166v34.926H9.963V0z" fill="#fff" fill-rule="evenodd" data-name="Rectangle 726"/><path d="M11.13 0h1.166v34.926h-1.167V0z" fill="#fff" fill-rule="evenodd" data-name="Rectangle 727"/><path d="M12.296 0h1.166v34.926h-1.166V0z" fill="#fff" fill-rule="evenodd" data-name="Rectangle 728"/><path d="M13.462 0h1.167v34.926h-1.167V0z" fill="#fff" fill-rule="evenodd" data-name="Rectangle 729"/><path d="M14.629 0h.977v34.926h-.977V0z" fill="#fff" fill-rule="evenodd" data-name="Rectangle 730"/></g></g></g><g data-name="Groupe 306"><g data-name="Groupe 305"><path d="M658.543 472.212 632.93 483.21l3.869 4.82 29.245-13.024-7.5-2.794Z" fill="#fff" fill-rule="evenodd" data-name="Tracé 4191"/><g data-name="Groupe 304" transform="translate(632.93 472.212)" clip-path="url(&quot;#f&quot;)"><path d="M0 0v15.818V0Z" fill="#fff" fill-rule="evenodd" data-name="Tracé 4192"/><path d="M0 0h.425v15.818H0V0z" fill="#fff" fill-rule="evenodd" data-name="Rectangle 731"/><path d="M.425 0h.424v15.818H.425V0z" fill="#fff" fill-rule="evenodd" data-name="Rectangle 732"/><path d="M.85 0h.424v15.818H.849V0z" fill="#fff" fill-rule="evenodd" data-name="Rectangle 733"/><path d="M1.274 0h.424v15.818h-.424V0z" fill="#fff" fill-rule="evenodd" data-name="Rectangle 734"/><path d="M1.698 0h.425v15.818h-.425V0z" fill="#fff" fill-rule="evenodd" data-name="Rectangle 735"/><path d="M2.123 0h.424v15.818h-.424V0z" fill="#fff" fill-rule="evenodd" data-name="Rectangle 736"/><path d="M2.547 0h.425v15.818h-.425V0z" fill="#fff" fill-rule="evenodd" data-name="Rectangle 737"/><path d="M2.972 0h.424v15.818h-.424V0z" fill="#fff" fill-rule="evenodd" data-name="Rectangle 738"/><path d="M3.396 0h.425v15.818h-.425V0z" fill="#fff" fill-rule="evenodd" data-name="Rectangle 739"/><path d="M3.82 0h.425v15.818h-.424V0z" fill="#fff" fill-rule="evenodd" data-name="Rectangle 740"/><path d="M4.245 0h.425v15.818h-.425V0z" fill="#fff" fill-rule="evenodd" data-name="Rectangle 741"/><path d="M4.67 0h.424v15.818H4.67V0z" fill="#fff" fill-rule="evenodd" data-name="Rectangle 742"/><path d="M5.094 0h.425v15.818h-.425V0z" fill="#fff" fill-rule="evenodd" data-name="Rectangle 743"/><path d="M5.519 0h.424v15.818H5.52V0z" fill="#fff" fill-rule="evenodd" data-name="Rectangle 744"/><path d="M5.944 0h.424v15.818h-.424V0z" fill="#fff" fill-rule="evenodd" data-name="Rectangle 745"/><path d="M6.368 0h.425v15.818h-.425V0z" fill="#fff" fill-rule="evenodd" data-name="Rectangle 746"/><path d="M6.793 0h.424v15.818h-.424V0z" fill="#fff" fill-rule="evenodd" data-name="Rectangle 747"/><path d="M7.217 0h.425v15.818h-.425V0z" fill="#fff" fill-rule="evenodd" data-name="Rectangle 748"/><path d="M7.642 0h.424v15.818h-.424V0z" fill="#fff" fill-rule="evenodd" data-name="Rectangle 749"/><path d="M8.066 0h.425v15.818h-.425V0z" fill="#fff" fill-rule="evenodd" data-name="Rectangle 750"/><path d="M8.49 0h.425v15.818h-.424V0z" fill="#fff" fill-rule="evenodd" data-name="Rectangle 751"/><path d="M8.915 0h.425v15.818h-.425V0z" fill="#fff" fill-rule="evenodd" data-name="Rectangle 752"/><path d="M9.34 0h.424v15.818H9.34V0z" fill="#fff" fill-rule="evenodd" data-name="Rectangle 753"/><path d="M9.764 0h.425v15.818h-.425V0z" fill="#fff" fill-rule="evenodd" data-name="Rectangle 754"/><path d="M10.189 0h.424v15.818h-.424V0z" fill="#fff" fill-rule="evenodd" data-name="Rectangle 755"/><path d="M10.613 0h.425v15.818h-.425V0z" fill="#fff" fill-rule="evenodd" data-name="Rectangle 756"/><path d="M11.038 0h.424v15.818h-.424V0z" fill="#fff" fill-rule="evenodd" data-name="Rectangle 757"/><path d="M11.462 0h.425v15.818h-.425V0z" fill="#fff" fill-rule="evenodd" data-name="Rectangle 758"/><path d="M11.887 0h.425v15.818h-.425V0z" fill="#fff" fill-rule="evenodd" data-name="Rectangle 759"/><path d="M12.312 0h.424v15.818h-.424V0z" fill="#fff" fill-rule="evenodd" data-name="Rectangle 760"/><path d="M12.736 0h.425v15.818h-.425V0z" fill="#fff" fill-rule="evenodd" data-name="Rectangle 761"/><path d="M13.16 0h.425v15.818h-.424V0z" fill="#fff" fill-rule="evenodd" data-name="Rectangle 762"/><path d="M13.585 0h.425v15.818h-.425V0z" fill="#fff" fill-rule="evenodd" data-name="Rectangle 763"/><path d="M14.01 0h.424v15.818h-.424V0z" fill="#fff" fill-rule="evenodd" data-name="Rectangle 764"/><path d="M14.434 0h.425v15.818h-.425V0z" fill="#fff" fill-rule="evenodd" data-name="Rectangle 765"/><path d="M14.859 0h.424v15.818h-.424V0z" fill="#fff" fill-rule="evenodd" data-name="Rectangle 766"/><path d="M15.283 0h.425v15.818h-.425V0z" fill="#fff" fill-rule="evenodd" data-name="Rectangle 767"/><path d="M15.708 0h.424v15.818h-.424V0z" fill="#fff" fill-rule="evenodd" data-name="Rectangle 768"/><path d="M16.132 0h.425v15.818h-.425V0z" fill="#fff" fill-rule="evenodd" data-name="Rectangle 769"/><path d="M16.557 0h.424v15.818h-.424V0z" fill="#fff" fill-rule="evenodd" data-name="Rectangle 770"/><path d="M16.981 0h.425v15.818h-.425V0z" fill="#fff" fill-rule="evenodd" data-name="Rectangle 771"/><path d="M17.406 0h.425v15.818h-.425V0z" fill="#fff" fill-rule="evenodd" data-name="Rectangle 772"/><path d="M17.83 0h.425v15.818h-.424V0z" fill="#fff" fill-rule="evenodd" data-name="Rectangle 773"/><path d="M18.255 0h.425v15.818h-.425V0z" fill="#fff" fill-rule="evenodd" data-name="Rectangle 774"/><path d="M18.68 0h.424v15.818h-.424V0z" fill="#fff" fill-rule="evenodd" data-name="Rectangle 775"/><path d="M19.104 0h.425v15.818h-.425V0z" fill="#fff" fill-rule="evenodd" data-name="Rectangle 776"/><path d="M19.529 0h.424v15.818h-.424V0z" fill="#fff" fill-rule="evenodd" data-name="Rectangle 777"/><path d="M19.953 0h.425v15.818h-.425V0z" fill="#fff" fill-rule="evenodd" data-name="Rectangle 778"/><path d="M20.378 0h.424v15.818h-.424V0z" fill="#fff" fill-rule="evenodd" data-name="Rectangle 779"/><path d="M20.802 0h.425v15.818h-.425V0z" fill="#fff" fill-rule="evenodd" data-name="Rectangle 780"/><path d="M21.227 0h.424v15.818h-.424V0z" fill="#fff" fill-rule="evenodd" data-name="Rectangle 781"/><path d="M21.651 0h.425v15.818h-.425V0z" fill="#fff" fill-rule="evenodd" data-name="Rectangle 782"/><path d="M22.076 0h.424v15.818h-.424V0z" fill="#fff" fill-rule="evenodd" data-name="Rectangle 783"/><path d="M22.5 0h.425v15.818H22.5V0z" fill="#fff" fill-rule="evenodd" data-name="Rectangle 784"/><path d="M22.925 0h.424v15.818h-.424V0z" fill="#fff" fill-rule="evenodd" data-name="Rectangle 785"/><path d="M23.35 0h.424v15.818h-.425V0z" fill="#fff" fill-rule="evenodd" data-name="Rectangle 786"/><path d="M23.774 0h.425v15.818h-.425V0z" fill="#fff" fill-rule="evenodd" data-name="Rectangle 787"/><path d="M24.199 0h.424v15.818H24.2V0z" fill="#fff" fill-rule="evenodd" data-name="Rectangle 788"/><path d="M24.623 0h.425v15.818h-.425V0z" fill="#fff" fill-rule="evenodd" data-name="Rectangle 789"/><path d="M25.048 0h.424v15.818h-.424V0z" fill="#fff" fill-rule="evenodd" data-name="Rectangle 790"/><path d="M25.472 0h.425v15.818h-.425V0z" fill="#fff" fill-rule="evenodd" data-name="Rectangle 791"/><path d="M25.897 0h.424v15.818h-.424V0z" fill="#fff" fill-rule="evenodd" data-name="Rectangle 792"/><path d="M26.321 0h.425v15.818h-.425V0z" fill="#fff" fill-rule="evenodd" data-name="Rectangle 793"/><path d="M26.746 0h.424v15.818h-.424V0z" fill="#fff" fill-rule="evenodd" data-name="Rectangle 794"/><path d="M27.17 0h.425v15.818h-.425V0z" fill="#fff" fill-rule="evenodd" data-name="Rectangle 795"/><path d="M27.595 0h.424v15.818h-.424V0z" fill="#fff" fill-rule="evenodd" data-name="Rectangle 796"/><path d="M28.02 0h.424v15.818h-.425V0z" fill="#fff" fill-rule="evenodd" data-name="Rectangle 797"/><path d="M28.444 0h.424v15.818h-.424V0z" fill="#fff" fill-rule="evenodd" data-name="Rectangle 798"/><path d="M28.868 0h.425v15.818h-.425V0z" fill="#fff" fill-rule="evenodd" data-name="Rectangle 799"/><path d="M29.293 0h.425v15.818h-.425V0z" fill="#fff" fill-rule="evenodd" data-name="Rectangle 800"/><path d="M29.718 0h.424v15.818h-.424V0z" fill="#fff" fill-rule="evenodd" data-name="Rectangle 801"/><path d="M30.142 0h.425v15.818h-.425V0z" fill="#fff" fill-rule="evenodd" data-name="Rectangle 802"/><path d="M30.567 0h.424v15.818h-.424V0z" fill="#fff" fill-rule="evenodd" data-name="Rectangle 803"/><path d="M30.991 0h.425v15.818h-.425V0z" fill="#fff" fill-rule="evenodd" data-name="Rectangle 804"/><path d="M31.416 0h.424v15.818h-.424V0z" fill="#fff" fill-rule="evenodd" data-name="Rectangle 805"/><path d="M31.84 0h.425v15.818h-.425V0z" fill="#fff" fill-rule="evenodd" data-name="Rectangle 806"/><path d="M32.265 0h.424v15.818h-.424V0z" fill="#fff" fill-rule="evenodd" data-name="Rectangle 807"/><path d="M32.69 0h.424v15.818h-.425V0z" fill="#fff" fill-rule="evenodd" data-name="Rectangle 808"/><path d="M33.114 15.818V0v15.818Z" fill="#fff" fill-rule="evenodd" data-name="Tracé 4193"/></g></g></g><g data-name="Groupe 307"><path d="M631.952 443.292c-14.209 0-25.768-11.56-25.768-25.768s11.56-25.767 25.768-25.767 25.767 11.56 25.767 25.767c0 14.209-11.56 25.768-25.767 25.768Zm0-46.574c-11.473 0-20.807 9.334-20.807 20.806 0 11.473 9.334 20.807 20.807 20.807 11.473 0 20.806-9.334 20.806-20.807 0-11.472-9.333-20.806-20.806-20.806Z" fill="#fff" fill-rule="evenodd" data-name="Tracé 4195"/></g></g><defs><clipPath id="a"><path d="M-3209.122 324.096a8.663 8.663 0 0 0-10.057-4.112l-24.688 7.254c-.752-4.14-3.736-7.546-7.893-8.795l-16.102-4.843a1.575 1.575 0 0 0-.967.017l-14.988 5.09v-3.587c0-.877-.71-1.587-1.588-1.587h-16.279c-.877 0-1.587.71-1.587 1.587v30.786c0 .877.71 1.588 1.587 1.588h16.28c.877 0 1.587-.711 1.587-1.588v-2.404c7.68 2.448 32 8.798 33.15 9.098.348.09.718.06 1.047-.086l12.196-5.432a1.586 1.586 0 0 0 .803-2.096 1.587 1.587 0 0 0-2.096-.805l-11.688 5.206c-8.516-2.226-28.722-7.595-33.412-9.223V322.06l15.528-5.273 15.615 4.696c3.288.988 5.53 3.857 5.77 7.235-1.246 1.186-5.462 4.394-13.429 2.816a1.583 1.583 0 0 0-1.865 1.248 1.586 1.586 0 0 0 1.248 1.867c1.73.343 3.321.49 4.772.49 6.87 0 10.648-3.269 11.777-4.435l26.116-7.674a5.507 5.507 0 0 1 6.39 2.612 5.476 5.476 0 0 1 .416 4.441 5.47 5.47 0 0 1-2.997 3.303l-18.686 8.322a1.588 1.588 0 0 0 1.293 2.9l18.686-8.321a8.726 8.726 0 0 0 4.717-5.2 8.726 8.726 0 0 0-.656-6.991Zm-77.87 20.222h-13.104v-27.61h13.104v27.61Z" data-name="Tracé 4180" transform="translate(3303.271 -313.532)"/></clipPath><clipPath id="b"><path d="M-3255.479 348.725c-.243 0-.487-.03-.724-.093-.969-.253-22.427-5.853-31.535-8.598v.656a2.88 2.88 0 0 1-2.877 2.878h-16.279a2.88 2.88 0 0 1-2.877-2.878v-30.785a2.88 2.88 0 0 1 2.877-2.878h16.279a2.88 2.88 0 0 1 2.877 2.878v1.787l13.284-4.512a2.839 2.839 0 0 1 1.755-.03l16.1 4.842c4.111 1.236 7.249 4.394 8.457 8.41l23.389-6.872c4.512-1.32 9.26.622 11.547 4.722a10.02 10.02 0 0 1 .753 8.027 10.02 10.02 0 0 1-5.415 5.97l-18.686 8.322a2.881 2.881 0 0 1-3.802-1.464 2.853 2.853 0 0 1-.057-2.193 2.86 2.86 0 0 1 1.516-1.6l18.687-8.322a4.195 4.195 0 0 0 2.298-2.533 4.2 4.2 0 0 0-.32-3.405 4.234 4.234 0 0 0-4.903-2.001l-25.796 7.58c-1.6 1.554-5.597 4.58-12.457 4.58-1.613 0-3.303-.173-5.023-.514a2.86 2.86 0 0 1-1.834-1.225 2.855 2.855 0 0 1-.428-2.16 2.856 2.856 0 0 1 1.23-1.836 2.842 2.842 0 0 1 2.16-.423c1.798.356 7.824 1.222 11.812-2.072a6.793 6.793 0 0 0-4.785-5.48l-15.22-4.578-14.262 4.844v16.249c5.615 1.797 22.853 6.394 32.012 8.79l11.275-5.02c1.46-.642 3.162.016 3.8 1.461a2.85 2.85 0 0 1 .058 2.196 2.858 2.858 0 0 1-1.515 1.6l-12.198 5.431c-.37.165-.771.249-1.173.249Zm-34.838-12.204 1.681.536c7.7 2.454 32.052 8.81 33.085 9.079.064.016.136.01.197-.017l12.196-5.43a.292.292 0 0 0 .156-.166.298.298 0 0 0-.406-.376l-12.095 5.386-.438-.114c-9.593-2.507-28.943-7.666-33.51-9.251l-.866-.302V315.92l16.794-5.703 16.01 4.815c3.782 1.136 6.405 4.426 6.685 8.38l.043.606-.44.419c-.696.662-2.227 1.898-4.666 2.73-2.925.999-6.256 1.14-9.903.417a.282.282 0 0 0-.22.041.299.299 0 0 0-.085.416.29.29 0 0 0 .19.127c1.555.309 3.076.465 4.52.465 6.436 0 9.933-3.094 10.852-4.042l.236-.245 26.442-7.77a6.802 6.802 0 0 1 7.881 3.222 6.754 6.754 0 0 1 .513 5.477 6.746 6.746 0 0 1-3.696 4.074l-18.686 8.321a.291.291 0 0 0-.156.166.29.29 0 0 0 .005.226.298.298 0 0 0 .387.156l18.694-8.325a7.433 7.433 0 0 0 4.017-4.43 7.434 7.434 0 0 0-.559-5.954 7.386 7.386 0 0 0-8.568-3.503l-26.063 7.658-.256-1.411c-.674-3.711-3.354-6.696-6.995-7.79l-16.102-4.843a.288.288 0 0 0-.174 0l-16.7 5.672v-5.387a.298.298 0 0 0-.298-.298h-16.279a.298.298 0 0 0-.297.298v30.785c0 .165.133.298.297.298h16.279a.298.298 0 0 0 .298-.298v-4.169Zm-.596 3.872h-15.683v-30.19h15.683v30.19Zm-13.103-2.58h10.523v-25.031h-10.523v25.031Z" data-name="Tracé 4183" transform="translate(3309.771 -307.025)"/></clipPath><clipPath id="c"><path d="M-2911.693 56.05c0 6.846-2.201 13.365-6.214 18.792l.095-1.265a1.587 1.587 0 0 0-1.463-1.702 1.581 1.581 0 0 0-1.703 1.463l-.456 6.06a1.587 1.587 0 0 0 1.464 1.703l6.06.455a1.588 1.588 0 0 0 .239-3.165l-2.788-.21a34.668 34.668 0 0 0 7.941-22.13c0-9.458-3.731-18.319-10.51-24.952a1.59 1.59 0 0 0-2.244.025 1.589 1.589 0 0 0 .024 2.245c6.162 6.03 9.555 14.086 9.555 22.681Z" data-name="Tracé 4185" transform="translate(2921.724 -30.647)"/></clipPath><clipPath id="d"><path d="M-2916.983 79.155c-.064 0-.128-.002-.192-.007l-6.056-.456a2.365 2.365 0 0 1-1.627-.822 2.362 2.362 0 0 1-.569-1.732l.456-6.06a2.371 2.371 0 0 1 .836-1.641 2.333 2.333 0 0 1 1.727-.553 2.359 2.359 0 0 1 1.617.821c.145.168.264.353.355.55a30.548 30.548 0 0 0 4.748-16.405c0-8.38-3.309-16.234-9.316-22.114a2.385 2.385 0 0 1-.038-3.367 2.387 2.387 0 0 1 3.368-.037c6.931 6.783 10.748 15.845 10.748 25.518 0 7.848-2.48 15.232-7.187 21.452l1.3.097c.634.048 1.212.34 1.627.822.415.483.617 1.098.568 1.732a2.35 2.35 0 0 1-.821 1.625c-.437.376-.98.577-1.544.577Zm-5.626-9.692a.761.761 0 0 0-.498.184.795.795 0 0 0-.28.55l-.457 6.06a.79.79 0 0 0 .732.851l6.06.457a.788.788 0 0 0 .578-.19.79.79 0 0 0-.458-1.392l-4.314-.325.972-1.182c5.077-6.168 7.76-13.647 7.76-21.626 0-9.242-3.647-17.902-10.27-24.383a.795.795 0 0 0-1.11 1.135c6.315 6.18 9.793 14.437 9.793 23.248 0 6.967-2.202 13.628-6.37 19.264l-1.635 2.213.3-4.01a.787.787 0 0 0-.188-.577.788.788 0 0 0-.615-.277Z" data-name="Tracé 4188" transform="translate(2925.719 -26.655)"/></clipPath><clipPath id="e"><path d="M-3083.156 99.236a4.633 4.633 0 0 1-4.627-4.627 1.587 1.587 0 1 0-3.175 0c0 3.759 2.672 6.903 6.215 7.638v2.022a1.587 1.587 0 1 0 3.175 0v-2.022c3.544-.735 6.215-3.88 6.215-7.638 0-4.302-3.5-7.803-7.803-7.803a4.633 4.633 0 0 1-4.627-4.626 4.633 4.633 0 0 1 4.627-4.627 4.633 4.633 0 0 1 4.628 4.627 1.587 1.587 0 1 0 3.175 0c0-3.759-2.671-6.903-6.215-7.638v-2.023a1.587 1.587 0 1 0-3.175 0v2.023c-3.543.735-6.215 3.88-6.215 7.638 0 4.302 3.5 7.802 7.802 7.802a4.633 4.633 0 0 1 4.628 4.627 4.633 4.633 0 0 1-4.628 4.627Z" data-name="Tracé 4190" transform="translate(3090.958 -70.931)"/></clipPath><clipPath id="f"><path d="m-3021.094 434.514-25.614 10.998 3.869 4.82 29.245-13.024-7.5-2.794Z" data-name="Tracé 4194" transform="translate(3046.708 -434.514)"/></clipPath></defs></svg>