<svg xmlns="http://www.w3.org/2000/svg" width="93.49" height="113.238" viewBox="329.853 386.803 93.49 113.238"><g data-name="Groupe 335"><path d="m356.841 392.16-22.41 7.531c-3.465 1.162-5.411 4.782-4.233 8.285l26.542 78.967v6.445a6.66 6.66 0 0 0 6.653 6.654h53.297a6.66 6.66 0 0 0 6.653-6.654v-99.932a6.66 6.66 0 0 0-6.653-6.653h-53.297c-3.328 0-6.011 2.275-6.552 5.356Zm-22.45 14.406c-.393-1.17.287-2.292 1.448-2.681l20.901-7.026v4.705l-8.814 2.962a2.212 2.212 0 0 0-1.392 2.802 4.596 4.596 0 0 1-2.893 5.824 2.21 2.21 0 0 0-1.391 2.8l14.49 43.108v14l-22.35-66.494Zm22.35-.335v38.947l-9.68-28.796a9.043 9.043 0 0 0 4.113-8.28l5.566-1.871Zm59.95-15.004c1.229 0 2.23 1 2.23 2.23v99.931c0 1.23-1.001 2.23-2.23 2.23h-53.298c-1.23 0-2.23-1-2.23-2.23v-100.08c0-1.187.959-2.081 2.23-2.081h53.297Z" fill="#fff" fill-rule="evenodd" data-name="Tracé 4213"/><path d="M372.433 397.898a4.604 4.604 0 0 1-4.598 4.598c-1.222 0-2.212.99-2.212 2.212v77.429c0 1.221.99 2.211 2.212 2.211a4.604 4.604 0 0 1 4.598 4.599c0 1.222.99 2.212 2.212 2.212h30.794c1.221 0 2.211-.99 2.211-2.212a4.604 4.604 0 0 1 4.599-4.599c1.221 0 2.212-.99 2.212-2.211v-77.43c0-1.22-.99-2.21-2.212-2.21a4.604 4.604 0 0 1-4.599-4.6c0-1.22-.99-2.21-2.211-2.21h-30.794c-1.221 0-2.212.99-2.212 2.21Zm37.604 42.83v5.388c-1.32 9.807-9.742 17.393-19.904 17.393-11.076 0-20.086-9.011-20.086-20.086 0-11.076 9.01-20.086 20.086-20.086 10.162 0 18.584 7.585 19.904 17.392Zm0 39.471a9.054 9.054 0 0 0-6.536 6.536h-26.919a9.054 9.054 0 0 0-6.536-6.536v-22.748c4.436 6.332 11.785 10.481 20.086 10.481 8.189 0 15.452-4.038 19.905-10.225v22.492Zm-6.536-80.09a9.054 9.054 0 0 0 6.536 6.536v22.493c-4.453-6.188-11.716-10.225-19.904-10.225-8.302 0-15.65 4.149-20.086 10.481v-22.748a9.054 9.054 0 0 0 6.535-6.536h26.92Z" fill="#fff" fill-rule="evenodd" data-name="Tracé 4214"/><path d="M387.938 440.712c-.623 1.76-1.373 3.704-2.216 4.779-.206.263-.704.377-1.239.283-.614-.108-1.364-.512-1.644-1.321-.283-.976-.423-2.33.486-3.306l.014-.015a2.204 2.204 0 0 0-.121-3.119 2.22 2.22 0 0 0-3.132.121 6.924 6.924 0 0 0-1.696 3.197h-1.636a2.212 2.212 0 0 0 0 4.423h1.857l.017.053c.737 2.245 2.688 3.902 5.09 4.323 2.162.38 4.263-.352 5.485-1.91 1.234-1.573 2.126-3.83 2.905-6.034.618-1.749 1.957-1.8 2.7-1.675 1.239.208 2.578 1.25 2.59 3.047.01 1.867-.072 2.404-.997 3.816a2.212 2.212 0 0 0 3.702 2.422c1.004-1.535 1.441-2.686 1.615-4.042h1.793a2.212 2.212 0 0 0 0-4.423h-2.02c-.889-2.903-3.436-4.76-5.95-5.182-3.382-.569-6.438 1.265-7.603 4.563Z" fill="#fff" fill-rule="evenodd" data-name="Tracé 4215"/><path d="M387.83 406.78v4.442a2.212 2.212 0 0 0 4.424 0v-4.442a2.212 2.212 0 0 0-4.424 0Z" fill="#fff" fill-rule="evenodd" data-name="Tracé 4216"/><path d="M387.83 475.623v4.441a2.212 2.212 0 0 0 4.424 0v-4.441a2.212 2.212 0 0 0-4.424 0Z" fill="#fff" fill-rule="evenodd" data-name="Tracé 4217"/></g></svg>