<svg xmlns="http://www.w3.org/2000/svg" width="43.769" height="50.802" viewBox="427.511 344.369 43.769 50.802"><g data-name="Groupe 934"><path d="M466.248 344.37h-33.704a5.038 5.038 0 0 0-5.033 5.032v40.737a5.038 5.038 0 0 0 5.033 5.032h33.704a5.038 5.038 0 0 0 5.032-5.032v-40.737a5.038 5.038 0 0 0-5.032-5.033Zm-33.704 2.288h33.704a2.747 2.747 0 0 1 2.744 2.744v3.518H429.8v-3.518a2.747 2.747 0 0 1 2.744-2.744Zm33.704 46.225h-33.704a2.747 2.747 0 0 1-2.744-2.744v-34.93h39.192v34.93a2.747 2.747 0 0 1-2.744 2.744Z" fill="#fff" fill-rule="evenodd" data-name="Tracé 4311"/><path d="M449.252 359.848c-7.1 0-12.875 5.776-12.875 12.875 0 7.1 5.776 12.876 12.875 12.876 7.1 0 12.876-5.776 12.876-12.876s-5.776-12.875-12.876-12.875Zm0 23.726c-5.983 0-10.85-4.867-10.85-10.85 0-5.984 4.867-10.852 10.85-10.852 5.984 0 10.851 4.868 10.851 10.851 0 5.984-4.867 10.851-10.85 10.851Z" fill="#fff" fill-rule="evenodd" data-name="Tracé 4312"/><path d="M445.862 363.97a8.976 8.976 0 0 0-4.76 4.722.8.8 0 1 0 1.47.637 7.38 7.38 0 0 1 3.914-3.883.801.801 0 0 0-.624-1.475Z" fill="#fff" fill-rule="evenodd" data-name="Tracé 4313"/></g></svg>