<svg xmlns="http://www.w3.org/2000/svg" width="56.847" height="51.079" viewBox="539 344.369 56.847 51.079"><g data-name="Groupe 928"><path d="m592.352 380.277-9.94-.301a.741.741 0 0 1-.596-.335l-6.31-9.627-1.498-2.408a1.076 1.076 0 1 0-1.827 1.138l1.503 2.416a2.277 2.277 0 0 1-.57 3.011l-9.698 7.181a1.072 1.072 0 0 0-.23.233l-8.074 11.127a1.416 1.416 0 0 1-1.916.356c-.616-.397-.809-1.271-.429-1.948l7.043-12.556c.1-.176.235-.33.393-.447l7.757-5.745c.45-.333.57-.957.273-1.434l-4.143-6.656 1.888-1.782a1.077 1.077 0 0 0-1.478-1.566l-6.186 5.838a3.35 3.35 0 0 1-2.309.918h-9.324a.825.825 0 0 1-.044-1.65l7.794-.417c.03 0 .06-.002.09-.005l.788-.042c.26-.014.506-.122.693-.304l6.86-6.68c.275-.267.584-.445.895-.516a2.256 2.256 0 0 1 2.412 1.009l2.924 4.698h-.47a1.076 1.076 0 0 0 0 2.152h12.46a1.076 1.076 0 1 0 0-2.152h-9.455l-3.632-5.836a4.41 4.41 0 0 0-4.714-1.97c-.698.158-1.363.53-1.922 1.073l-5.876 5.722v-3.927c0-.595-.482-1.077-1.077-1.077h-14.33c-.595 0-1.077.482-1.077 1.077v14.341c0 .595.482 1.076 1.076 1.076h14.331c.595 0 1.077-.481 1.077-1.076v-3.344h.521a5.495 5.495 0 0 0 3.786-1.504l2.701-2.549 3.389 5.444-6.96 5.154c-.397.294-.737.68-.987 1.12l-7.045 12.56c-.941 1.678-.44 3.791 1.14 4.81.599.386 1.271.572 1.936.572a3.56 3.56 0 0 0 2.89-1.473l7.976-10.993 9.564-7.082a4.35 4.35 0 0 0 1.334-1.62l4.287 6.54a2.895 2.895 0 0 0 2.332 1.306l9.939.302c.789.023 1.407.661 1.407 1.452 0 .801-.65 1.453-1.451 1.453h-11.618a3.342 3.342 0 0 1-2.657-1.301l-3.801-4.896a1.076 1.076 0 1 0-1.7 1.32l3.8 4.896a5.48 5.48 0 0 0 4.358 2.134h11.618a3.61 3.61 0 0 0 3.604-3.606 3.588 3.588 0 0 0-3.495-3.604ZM546.23 359.92h2.024v.516h-2.024v-.516Zm7.101 12.189h-12.178v-12.19h2.924v1.593c0 .595.482 1.077 1.076 1.077h4.177c.594 0 1.076-.482 1.076-1.077v-1.592h2.925v3.605l-6.809.365a2.977 2.977 0 0 0 .16 5.951h6.649v2.268Z" fill="#fff" fill-rule="evenodd" data-name="Tracé 4262"/><path d="M548.651 351.262a5.94 5.94 0 0 0 2.306.463h1.07a5.873 5.873 0 0 0 5.864 5.843 5.874 5.874 0 0 0 5.866-5.869v-.377c.147-.185.236-.418.236-.673v-.34a5.945 5.945 0 0 0-5.936-5.94h-1.254c-3.024 0-5.527 2.274-5.89 5.203a3.8 3.8 0 0 1-1.43-.296 1.076 1.076 0 1 0-.832 1.986Zm9.24 4.153a3.718 3.718 0 0 1-3.712-3.69h7.424a3.718 3.718 0 0 1-3.712 3.69Zm-1.088-8.893h1.254a3.791 3.791 0 0 1 3.712 3.05h-8.678a3.791 3.791 0 0 1 3.712-3.05Z" fill="#fff" fill-rule="evenodd" data-name="Tracé 4263"/><path d="M570.179 352.041h5.874a1.076 1.076 0 0 0 0-2.153h-5.874a1.076 1.076 0 1 0 0 2.153Z" fill="#fff" fill-rule="evenodd" data-name="Tracé 4264"/><path d="M581.142 356.275h6.443a1.076 1.076 0 1 0 0-2.152h-6.443a1.076 1.076 0 1 0 0 2.152Z" fill="#fff" fill-rule="evenodd" data-name="Tracé 4265"/></g></svg>