<svg xmlns="http://www.w3.org/2000/svg" width="75.93" height="100.809" viewBox="4603.956 -1015.181 75.93 100.809"><g data-name="CompositeLayer"><g data-name="Composant 3 – 14"><g data-name="Groupe 164"><path d="M4646.99-914.371h9.57c6.913-.009 12.515-5.611 12.524-12.525v-43.21a2.505 2.505 0 1 0-5.01 0v43.21a7.515 7.515 0 0 1-7.515 7.515h-40.078a7.515 7.515 0 0 1-7.515-7.515v-65.753a7.515 7.515 0 0 1 7.515-7.515h10.02a2.505 2.505 0 1 0 0-5.01h-10.02c-6.914.008-12.516 5.61-12.525 12.525v65.753c.009 6.914 5.611 12.516 12.525 12.525h9.569" fill="#fff" fill-rule="evenodd" data-name="Tracé 4166"/><path d="M4672.371-1015.18h-30.058a7.537 7.537 0 0 0-7.515 7.514v20.04a7.537 7.537 0 0 0 7.515 7.514v7.515a2.472 2.472 0 0 0 1.553 2.304c.934.38 2.004.173 2.73-.526l9.268-9.293h16.507a7.537 7.537 0 0 0 7.515-7.515v-20.039a7.537 7.537 0 0 0-7.515-7.515Z" fill="#fff" fill-rule="evenodd" data-name="Tracé 4167"/></g></g><g data-name="Groupe 334"><g data-name="Groupe 302"><path d="M4658.139-988.907a3.789 3.789 0 0 1-3.785-3.784 1.298 1.298 0 1 0-2.596 0c0 3.073 2.185 5.645 5.083 6.246v1.654a1.298 1.298 0 1 0 2.596 0v-1.654c2.898-.601 5.084-3.173 5.084-6.246a6.39 6.39 0 0 0-6.382-6.382 3.789 3.789 0 0 1-3.785-3.784 3.789 3.789 0 0 1 3.785-3.784 3.789 3.789 0 0 1 3.785 3.784 1.298 1.298 0 1 0 2.597 0c0-3.074-2.186-5.645-5.084-6.247v-1.654a1.298 1.298 0 1 0-2.596 0v1.654c-2.898.602-5.083 3.173-5.083 6.247a6.388 6.388 0 0 0 6.38 6.38 3.789 3.789 0 0 1 3.786 3.786 3.789 3.789 0 0 1-3.785 3.784Z" fill="#00bffe" fill-rule="evenodd" data-name="Tracé 4189"/><g data-name="Groupe 301" transform="translate(4651.758 -1012.057)" clip-path="url(&quot;#a&quot;)"><path d="M0 0h.516v28.564H0V0z" fill="#00bffe" fill-rule="evenodd" data-name="Rectangle 717"/><path d="M.516 0h.954v28.564H.516V0z" fill="#00bffe" fill-rule="evenodd" data-name="Rectangle 718"/><path d="M1.47 0h.954v28.564H1.47V0z" fill="#00bffe" fill-rule="evenodd" data-name="Rectangle 719"/><path d="M2.424 0h.954v28.564h-.954V0z" fill="#00bffe" fill-rule="evenodd" data-name="Rectangle 720"/><path d="M3.378 0h.954v28.564h-.954V0z" fill="#00bffe" fill-rule="evenodd" data-name="Rectangle 721"/><path d="M4.332 0h.954v28.564h-.954V0z" fill="#00bffe" fill-rule="evenodd" data-name="Rectangle 722"/><path d="M5.286 0h.954v28.564h-.954V0z" fill="#00bffe" fill-rule="evenodd" data-name="Rectangle 723"/><path d="M6.24 0h.954v28.564H6.24V0z" fill="#00bffe" fill-rule="evenodd" data-name="Rectangle 724"/><path d="M7.194 0h.954v28.564h-.954V0z" fill="#00bffe" fill-rule="evenodd" data-name="Rectangle 725"/><path d="M8.148 0h.954v28.564h-.954V0z" fill="#00bffe" fill-rule="evenodd" data-name="Rectangle 726"/><path d="M9.102 0h.954v28.564h-.954V0z" fill="#00bffe" fill-rule="evenodd" data-name="Rectangle 727"/><path d="M10.056 0h.954v28.564h-.954V0z" fill="#00bffe" fill-rule="evenodd" data-name="Rectangle 728"/><path d="M11.01 0h.954v28.564h-.954V0z" fill="#00bffe" fill-rule="evenodd" data-name="Rectangle 729"/><path d="M11.964 0h.799v28.564h-.799V0z" fill="#00bffe" fill-rule="evenodd" data-name="Rectangle 730"/></g></g></g></g><defs><clipPath id="a"><path d="M-3084.577 94.08a3.789 3.789 0 0 1-3.785-3.784 1.298 1.298 0 1 0-2.596 0c0 3.074 2.185 5.645 5.083 6.247v1.654a1.298 1.298 0 1 0 2.596 0v-1.654c2.898-.602 5.084-3.173 5.084-6.247a6.39 6.39 0 0 0-6.382-6.381 3.789 3.789 0 0 1-3.785-3.784 3.789 3.789 0 0 1 3.785-3.785 3.789 3.789 0 0 1 3.785 3.785 1.298 1.298 0 1 0 2.597 0c0-3.074-2.186-5.646-5.084-6.247v-1.655a1.298 1.298 0 1 0-2.596 0v1.655c-2.898.601-5.083 3.173-5.083 6.247a6.388 6.388 0 0 0 6.38 6.38 3.789 3.789 0 0 1 3.786 3.785 3.789 3.789 0 0 1-3.785 3.784Z" data-name="Tracé 4190" transform="translate(3090.958 -70.931)"/></clipPath></defs></svg>