<svg xmlns="http://www.w3.org/2000/svg" width="47.969" height="51.582" viewBox="663.458 345.52 47.969 51.582"><g data-name="13 Flag"><path d="M665.148 345.52a1.692 1.692 0 0 0-1.69 1.69v48.202a1.69 1.69 0 0 0 3.38 0V347.21a1.692 1.692 0 0 0-1.69-1.69Z" fill="#fff" fill-rule="evenodd" data-name="Tracé 5012"/><path d="M705.087 369.237a4.77 4.77 0 0 1 0-5.18l5.77-9.047a3.421 3.421 0 0 0 .126-3.575c-.692-1.262-2.07-2.046-3.598-2.046h-39.252v34.516h39.252c1.528 0 2.906-.784 3.598-2.047a3.42 3.42 0 0 0-.125-3.575l-5.771-9.046Zm-8.188-5.396-9.139 9.128a3.64 3.64 0 0 1-5.145 0l-4.351-4.352a2.684 2.684 0 0 1 3.795-3.796l2.288 2.288a1.199 1.199 0 0 0 1.695 0l7.063-7.064a2.683 2.683 0 0 1 3.795 3.795v.001Z" fill="#fff" fill-rule="evenodd" data-name="Tracé 5013"/></g></svg>