<svg xmlns="http://www.w3.org/2000/svg" width="96.997" height="97.121" viewBox="102.502 391.275 96.997 97.121"><g data-name="Groupe 183"><g data-name="Groupe 177"><path d="M181.206 488.396h-60.41c-6.605 0-11.979-5.373-11.979-11.978v-40.704h5.073v40.704a6.914 6.914 0 0 0 6.906 6.906h60.41a6.914 6.914 0 0 0 6.906-6.906v-40.704h5.072v40.704c0 6.605-5.373 11.978-11.978 11.978Z" fill="#fff" fill-rule="evenodd" data-name="Tracé 4174"/></g><g data-name="Groupe 178"><path d="M163.761 488.396h-25.52v-76.985h25.52v76.985Zm-20.448-5.072h15.376v-66.84h-15.376v66.84Z" fill="#fff" fill-rule="evenodd" data-name="Tracé 4175"/></g><g data-name="Groupe 179"><path d="M189.977 438.25h-77.953c-5.25 0-9.522-4.271-9.522-9.522v-8.766c0-5.25 4.272-9.522 9.522-9.522h77.953c5.25 0 9.522 4.272 9.522 9.522v8.766c0 5.25-4.271 9.522-9.522 9.522Zm-77.953-22.737a4.455 4.455 0 0 0-4.45 4.45v8.765a4.455 4.455 0 0 0 4.45 4.45h77.953a4.455 4.455 0 0 0 4.45-4.45v-8.766a4.455 4.455 0 0 0-4.45-4.45h-77.953Z" fill="#fff" fill-rule="evenodd" data-name="Tracé 4176"/></g><g data-name="Groupe 182"><g data-name="Groupe 180"><path d="M159.102 415.31c-4.761 0-8.272-.636-8.568-.692l-2.468-.462.437-2.472c.03-.166.744-4.093 3.288-8.46 3.42-5.872 8.542-9.81 14.81-11.385 8.072-2.03 13.509 1.727 15.317 6.35 1.965 5.026-.273 10.506-5.445 13.327-5.585 3.046-12.212 3.794-17.371 3.794Zm-4.87-5.321c4.408.425 13.203.678 19.812-2.927 3.588-1.956 3.939-5.007 3.15-7.025-.925-2.365-3.93-4.642-9.356-3.278-8.593 2.16-12.233 9.33-13.606 13.23Z" fill="#fff" fill-rule="evenodd" data-name="Tracé 4177"/></g><g data-name="Groupe 181"><path d="M142.9 415.31c-5.16 0-11.785-.747-17.372-3.794-5.17-2.821-7.41-8.301-5.444-13.327 1.808-4.623 7.246-8.379 15.317-6.35 6.268 1.576 11.389 5.513 14.81 11.386 2.543 4.366 3.258 8.293 3.288 8.459l.437 2.472-2.468.462c-.296.056-3.808.692-8.568.692Zm-11.817-18.962c-3.507 0-5.542 1.817-6.275 3.689-.789 2.018-.438 5.069 3.15 7.025 6.607 3.604 15.399 3.352 19.809 2.927a24.716 24.716 0 0 0-2.024-4.355c-2.753-4.65-6.649-7.636-11.579-8.875-1.131-.285-2.157-.41-3.081-.41Z" fill="#fff" fill-rule="evenodd" data-name="Tracé 4178"/></g></g></g></svg>