<svg xmlns="http://www.w3.org/2000/svg" width="52.552" height="50.925" viewBox="537.008 913.611 52.552 50.925"><g data-name="Groupe 114"><path d="M583.132 964.536h-10.08a4.399 4.399 0 0 1-4.393-4.394v-11.634c0-1.082-.88-1.962-1.962-1.962h-6.826c-1.081 0-1.961.88-1.961 1.962v11.634a4.399 4.399 0 0 1-4.394 4.394h-10.08a6.435 6.435 0 0 1-6.428-6.428v-24.89a6.412 6.412 0 0 1 2.88-5.36L559.8 914.68a6.415 6.415 0 0 1 7.108.01l19.786 13.168a6.414 6.414 0 0 1 2.866 5.35v24.9a6.435 6.435 0 0 1-6.428 6.427Z" fill="#d5d5d5" fill-rule="evenodd" data-name="Tracé 4132"/></g></svg>