<svg xmlns="http://www.w3.org/2000/svg" width="107.736" height="115.618" viewBox="476.187 408.242 107.736 115.618"><g data-name="laundry_4264198"><g data-name="Groupe 151"><path d="m573.523 424.307-7.455 17.42a3.157 3.157 0 0 1-3.788 1.789l-5.685-1.665v29.442c-3.87-1.36-7.83-1.658-10.557-1.658-4.143 0-8.174.692-11.366 1.95-.005.003-.009.005-.013.005l-.173.067c-2.115.856-6.797.841-8.864.002-4.137-1.679-8.554-2.033-11.53-2.033-3.816 0-7.53.588-10.577 1.665v-29.44l-5.685 1.665a3.157 3.157 0 0 1-3.788-1.789l-7.455-17.42a3.155 3.155 0 0 1 1.57-4.103l25.056-11.666a3.155 3.155 0 0 1 4.036 1.233c2.731 4.535 7.518 7.243 12.806 7.243 5.288 0 10.075-2.708 12.806-7.243a3.155 3.155 0 0 1 4.036-1.233l25.056 11.666a3.155 3.155 0 0 1 1.57 4.103Z" stroke-linejoin="round" stroke-linecap="round" stroke-width="2" stroke="#fff" fill="transparent" data-name="Tracé 4150"/></g><path d="m583.853 479.037-9.014 42.324a3.157 3.157 0 0 1-3.087 2.5h-83.394a3.157 3.157 0 0 1-3.087-2.5l-7.198-33.798-.004-.02-1.812-8.506a3.157 3.157 0 1 1 6.174-1.315l1.325 6.224c2.401.194 5.455.616 7.479 1.416l.078.032c3.621 1.464 9.976 1.464 13.6-.002.02-.009.041-.017.064-.024 5.006-2.022 13.021-2.106 18.277.026 3.622 1.464 9.98 1.464 13.602-.002.025-.009.048-.02.074-.028 4.989-1.992 12.926-2.108 18.268.028 3.624 1.466 9.978 1.466 13.6.002l.075-.032c2.056-.812 5.099-1.241 7.485-1.44l1.321-6.2a3.157 3.157 0 1 1 6.174 1.315Z" stroke-linejoin="round" stroke-linecap="round" stroke-width="2" stroke="#fff" fill="transparent" data-name="Tracé 4151"/></g></svg>