<svg xmlns="http://www.w3.org/2000/svg" width="38.718" height="51.404" viewBox="110.603 139.778 38.718 51.404"><g data-name="Groupe 164"><path d="M132.547 191.182h4.879a6.394 6.394 0 0 0 6.386-6.386v-22.034a1.277 1.277 0 1 0-2.554 0v22.034a3.832 3.832 0 0 1-3.832 3.831h-20.437a3.832 3.832 0 0 1-3.832-3.831v-33.53a3.832 3.832 0 0 1 3.832-3.83h5.11a1.277 1.277 0 1 0 0-2.555h-5.11a6.394 6.394 0 0 0-6.386 6.386v33.529a6.394 6.394 0 0 0 6.386 6.386h4.88" fill="#fff" fill-rule="evenodd" data-name="Tracé 4166"/><path d="M145.489 139.778H130.16a3.843 3.843 0 0 0-3.832 3.832v10.218a3.843 3.843 0 0 0 3.832 3.832v3.832a1.26 1.26 0 0 0 .792 1.175 1.301 1.301 0 0 0 1.392-.268l4.726-4.74h8.418a3.843 3.843 0 0 0 3.832-3.831V143.61a3.843 3.843 0 0 0-3.832-3.832Zm-3.832 12.773h-7.664a1.277 1.277 0 1 1 0-2.555h7.664a1.277 1.277 0 1 1 0 2.555Zm0-5.11h-7.664a1.277 1.277 0 1 1 0-2.554h7.664a1.277 1.277 0 1 1 0 2.555Z" fill="#fff" fill-rule="evenodd" data-name="Tracé 4167"/></g></svg>