<svg xmlns="http://www.w3.org/2000/svg" width="38.414" height="54.634" viewBox="189.008 909.902 38.414 54.634"><g data-name="Groupe 162"><g data-name="Groupe 159"><g data-name="Groupe 158"><path d="M214.618 916.305a6.409 6.409 0 0 0-6.403-6.403 6.409 6.409 0 0 0-6.402 6.403 4.807 4.807 0 0 0-4.802 4.802v1.6h22.409v-1.6a4.807 4.807 0 0 0-4.802-4.802Z" fill="#d5d5d5" fill-rule="evenodd" data-name="Tracé 4164"/></g></g><g data-name="Groupe 161"><g data-name="Groupe 160"><path d="M222.62 919.506v4.802a1.6 1.6 0 0 1-1.6 1.6h-25.61a1.6 1.6 0 0 1-1.6-1.6v-4.802a4.807 4.807 0 0 0-4.802 4.802v35.426a4.807 4.807 0 0 0 4.802 4.802h28.81a4.807 4.807 0 0 0 4.803-4.802v-35.426a4.807 4.807 0 0 0-4.802-4.802Zm-3.2 35.32h-20.808a1.6 1.6 0 1 1 0-3.201h20.808a1.6 1.6 0 1 1 0 3.2Zm0-9.604h-20.808a1.6 1.6 0 1 1 0-3.201h20.808a1.6 1.6 0 1 1 0 3.201Zm0-9.603h-20.808a1.6 1.6 0 1 1 0-3.202h20.808a1.6 1.6 0 1 1 0 3.202Z" fill="#d5d5d5" fill-rule="evenodd" data-name="Tracé 4165"/></g></g></g></svg>