<svg xmlns="http://www.w3.org/2000/svg" width="29.772" height="52.574" viewBox="37.464 164 29.772 52.574"><g data-name="cell-phone_191"><path d="M63.41 164H41.29a3.827 3.827 0 0 0-3.826 3.83v44.918a3.824 3.824 0 0 0 3.826 3.826h22.12a3.827 3.827 0 0 0 3.826-3.826V167.83A3.829 3.829 0 0 0 63.41 164Zm-16.518 2.326h10.92c.276 0 .5.412.5.921 0 .51-.224.924-.5.924h-10.92c-.278 0-.498-.414-.498-.924s.22-.921.498-.921Zm5.46 46.468a2.443 2.443 0 1 1 0-4.885 2.442 2.442 0 0 1 0 4.885Zm12.018-8.37H40.332v-33.962H64.37v33.962Z" fill="#00bffe" fill-rule="evenodd" data-name="Tracé 4149"/></g></svg>