<svg xmlns="http://www.w3.org/2000/svg" width="43.776" height="43.776" viewBox="65 348.021 43.776 43.776"><path d="M102.666 357.726H99.07v-3.742c0-.363-.144-.711-.4-.968l-4.596-4.594a1.368 1.368 0 0 0-.967-.401H78.927a4.226 4.226 0 0 0-4.222 4.222v5.483H71.11a6.117 6.117 0 0 0-6.11 6.11v12.146c0 3.369 2.741 6.11 6.11 6.11h3.595v5.484a4.226 4.226 0 0 0 4.222 4.221h15.922a4.226 4.226 0 0 0 4.222-4.221v-5.484h3.595c3.37 0 6.11-2.741 6.11-6.11v-12.146c0-3.369-2.74-6.11-6.11-6.11Zm-25.225-5.483c0-.82.667-1.486 1.486-1.486h13.615l3.793 3.793v3.176H77.44v-5.483ZM94.85 389.06H78.927c-.82 0-1.486-.666-1.486-1.486V377.21h18.894v10.365c0 .82-.667 1.486-1.486 1.486Zm11.191-13.08a3.378 3.378 0 0 1-3.374 3.375H99.07v-2.146h.479a1.368 1.368 0 1 0 0-2.736H74.226a1.368 1.368 0 1 0 0 2.736h.48v2.146H71.11a3.378 3.378 0 0 1-3.374-3.374v-12.146a3.378 3.378 0 0 1 3.374-3.374h31.556a3.378 3.378 0 0 1 3.374 3.374v12.146Zm-11.747 4.743c0 .755-.612 1.368-1.368 1.368H80.851a1.368 1.368 0 1 1 0-2.736h12.074c.756 0 1.368.612 1.368 1.368Zm0 4.882c0 .755-.612 1.368-1.368 1.368H80.851a1.368 1.368 0 1 1 0-2.736h12.074c.756 0 1.368.612 1.368 1.368Zm7.92-20c0 .756-.612 1.369-1.368 1.369h-3.347a1.368 1.368 0 1 1 0-2.736h3.347c.756 0 1.368.612 1.368 1.368Z" fill="#fff" fill-rule="evenodd" data-name="Tracé 4212"/></svg>