<svg xmlns="http://www.w3.org/2000/svg" width="27.935" height="32" viewBox="404 163.405 27.935 32"><g data-name="Groupe 167"><path d="M417.967 195.405h8.331a5.213 5.213 0 0 0 5.206-5.206V178.25a1.041 1.041 0 1 0-2.082 0V190.2a3.124 3.124 0 0 1-3.124 3.124h-16.661a3.124 3.124 0 0 1-3.124-3.124h-2.083a5.213 5.213 0 0 0 5.207 5.206h8.33" fill="#fff" fill-rule="evenodd" data-name="Tracé 4170"/><path d="M408.907 163.405c-.548 0-1.045.323-1.268.824l-3.487 7.843c-.25.568-.19 1.19.167 1.7.336.48.905.74 1.49.74h.593c.777 0 1.465-.524 1.673-1.27l1.607-5.793 1.124-4.044h-1.899Zm3.34 0-2.475 8.906a1.733 1.733 0 0 0 1.673 2.201h.875a1.73 1.73 0 0 0 1.725-1.545l1.065-9.562h-2.863Zm7.182 0h-2.923l-.98 8.795a2.093 2.093 0 0 0 .522 1.618c.4.448.95.694 1.551.694h.736c.6 0 1.152-.246 1.552-.694.395-.44.583-1.03.52-1.618l-.978-8.795Zm4.259 0h-2.864l1.066 9.562a1.73 1.73 0 0 0 1.725 1.545h.874a1.733 1.733 0 0 0 1.673-2.201l-2.474-8.906Zm4.608.824a1.39 1.39 0 0 0-1.269-.824h-1.899l1.125 4.044 1.607 5.793c.208.746.895 1.27 1.673 1.27h.592c.585 0 1.155-.26 1.49-.74.358-.51.418-1.133.167-1.7l-3.486-7.843Z" fill="#fff" fill-rule="evenodd" data-name="Shop"/><path d="M417.967 195.405h8.331a5.213 5.213 0 0 0 5.206-5.206h-2.082a3.124 3.124 0 0 1-3.124 3.124h-16.661a3.124 3.124 0 0 1-3.124-3.124V178.25a1.041 1.041 0 0 0-2.083 0V190.2a5.213 5.213 0 0 0 5.207 5.206h8.33" fill="#fff" fill-rule="evenodd" data-name="Tracé 4171"/></g></svg>