<svg xmlns="http://www.w3.org/2000/svg" width="149.89" height="83.776" viewBox="165 431.806 149.89 83.776"><g data-name="steaming_10208055"><path d="M307.856 500.328v-14.286c0-4.358-3.39-7.748-7.748-7.748h-46.731c-7.99 0-12.833-8.474-9.201-15.254l4.843-9.2c1.694-3.39 5.326-5.57 9.2-5.57h41.404c2.18 0 4.359-.968 5.811-2.42 1.453-1.454 2.422-3.39 2.422-5.812 0-4.358-3.632-8.232-7.99-8.232H244.66c-21.55 0-41.404 11.622-51.573 30.508l-20.339 38.014" stroke-linejoin="round" stroke-linecap="round" stroke-width="2.067" stroke="#fff" fill="transparent" data-name="Tracé 4152"/><path d="M259.43 478.052c0-2.663 1.21-5.085 2.906-6.78 1.695-1.694 4.116-2.905 6.78-2.905h13.316c5.327 0 9.685 4.358 9.685 9.685" stroke-linejoin="round" stroke-linecap="round" stroke-width="2.067" stroke="#fff" fill="transparent" data-name="Tracé 4153"/><path d="M256.767 489.19h3.39" stroke-linejoin="round" stroke-linecap="round" stroke-width="2.067" stroke="#fff" fill="transparent" data-name="Tracé 4154"/><path d="M272.505 489.19h3.39" stroke-linejoin="round" stroke-linecap="round" stroke-width="2.067" stroke="#fff" fill="transparent" data-name="Tracé 4155"/><path d="M288.243 489.19h3.39" stroke-linejoin="round" stroke-linecap="round" stroke-width="2.067" stroke="#fff" fill="transparent" data-name="Tracé 4156"/><path d="M307.371 500.328H172.748c-4.358 0-7.748 3.39-7.748 7.506 0 4.358 3.39 7.748 7.748 7.748H307.13c4.359 0 7.748-3.39 7.748-7.748.243-4.116-3.147-7.506-7.506-7.506Z" stroke-linejoin="round" stroke-linecap="round" stroke-width="2.067" stroke="#fff" fill="transparent" data-name="Tracé 4157"/></g></svg>